<svg width="321" height="465" viewBox="0 0 321 465" fill="none" xmlns="http://www.w3.org/2000/svg">
<path d="M222.944 422.897H286.823C296.366 422.897 304.172 415.096 304.172 405.559V58.9872C304.172 49.4497 296.366 41.6489 286.823 41.6489H222.944C213.4 41.6489 205.595 49.4497 205.595 58.9872V405.559C205.595 415.092 213.4 422.897 222.944 422.897Z" fill="#D94A3D"/>
<path d="M210.687 0H188.482C178.938 0 171.133 7.80073 171.133 17.3382V419.175C171.133 428.713 178.938 436.514 188.482 436.514H210.687C220.23 436.514 228.036 428.713 228.036 419.175V17.3382C228.036 7.80073 220.226 0 210.687 0Z" fill="#103E3F"/>
<path d="M310.989 157.642H302.161C296.653 157.642 292.15 162.146 292.15 167.647V447.187C292.15 452.687 296.657 457.191 302.161 457.191H310.989C316.497 457.191 320.999 452.687 320.999 447.187V167.647C320.999 162.146 316.497 157.642 310.989 157.642Z" fill="url(#paint0_linear)"/>
<path d="M240.857 70.804H237.65C237.251 70.804 236.927 70.4802 236.927 70.0807C236.927 69.6812 237.251 69.3574 237.65 69.3574H240.857C241.257 69.3574 241.581 69.6812 241.581 70.0807C241.581 70.4802 241.257 70.804 240.857 70.804Z" fill="white"/>
<path d="M249.672 70.804H243.563C243.163 70.804 242.839 70.4802 242.839 70.0807C242.839 69.6812 243.163 69.3574 243.563 69.3574H249.672C250.072 69.3574 250.396 69.6812 250.396 70.0807C250.396 70.4802 250.072 70.804 249.672 70.804Z" fill="white"/>
<path d="M258.988 70.804H253.88C253.48 70.804 253.156 70.4802 253.156 70.0807C253.156 69.6812 253.48 69.3574 253.88 69.3574H258.988C259.388 69.3574 259.712 69.6812 259.712 70.0807C259.712 70.4802 259.388 70.804 258.988 70.804Z" fill="white"/>
<path d="M302.969 70.804H265.502C265.102 70.804 264.778 70.4802 264.778 70.0807C264.778 69.6812 265.102 69.3574 265.502 69.3574H302.969C303.369 69.3574 303.693 69.6812 303.693 70.0807C303.693 70.4802 303.369 70.804 302.969 70.804Z" fill="white"/>
<path d="M240.857 76.8636H237.65C237.251 76.8636 236.927 76.5398 236.927 76.1403C236.927 75.7408 237.251 75.417 237.65 75.417H240.857C241.257 75.417 241.581 75.7408 241.581 76.1403C241.581 76.5398 241.257 76.8636 240.857 76.8636Z" fill="white"/>
<path d="M249.672 76.8636H243.563C243.163 76.8636 242.839 76.5398 242.839 76.1403C242.839 75.7408 243.163 75.417 243.563 75.417H249.672C250.072 75.417 250.396 75.7408 250.396 76.1403C250.396 76.5398 250.072 76.8636 249.672 76.8636Z" fill="white"/>
<path d="M258.988 76.8636H253.88C253.48 76.8636 253.156 76.5398 253.156 76.1403C253.156 75.7408 253.48 75.417 253.88 75.417H258.988C259.388 75.417 259.712 75.7408 259.712 76.1403C259.712 76.5398 259.388 76.8636 258.988 76.8636Z" fill="white"/>
<path d="M302.969 76.8636H265.502C265.102 76.8636 264.778 76.5398 264.778 76.1403C264.778 75.7408 265.102 75.417 265.502 75.417H302.969C303.369 75.417 303.693 75.7408 303.693 76.1403C303.693 76.5398 303.369 76.8636 302.969 76.8636Z" fill="white"/>
<path d="M240.857 82.9193H237.65C237.251 82.9193 236.927 82.5955 236.927 82.196C236.927 81.7965 237.251 81.4727 237.65 81.4727H240.857C241.257 81.4727 241.581 81.7965 241.581 82.196C241.581 82.5955 241.257 82.9193 240.857 82.9193Z" fill="white"/>
<path d="M249.672 82.9193H243.563C243.163 82.9193 242.839 82.5955 242.839 82.196C242.839 81.7965 243.163 81.4727 243.563 81.4727H249.672C250.072 81.4727 250.396 81.7965 250.396 82.196C250.396 82.5955 250.072 82.9193 249.672 82.9193Z" fill="white"/>
<path d="M258.988 82.9193H253.88C253.48 82.9193 253.156 82.5955 253.156 82.196C253.156 81.7965 253.48 81.4727 253.88 81.4727H258.988C259.388 81.4727 259.712 81.7965 259.712 82.196C259.712 82.5955 259.388 82.9193 258.988 82.9193Z" fill="white"/>
<path d="M302.969 82.9193H265.502C265.102 82.9193 264.778 82.5955 264.778 82.196C264.778 81.7965 265.102 81.4727 265.502 81.4727H302.969C303.369 81.4727 303.693 81.7965 303.693 82.196C303.693 82.5955 303.369 82.9193 302.969 82.9193Z" fill="white"/>
<path d="M233.943 88.9749H230.736C230.337 88.9749 230.013 88.6511 230.013 88.2516C230.013 87.8521 230.337 87.5283 230.736 87.5283H233.943C234.343 87.5283 234.667 87.8521 234.667 88.2516C234.667 88.6511 234.343 88.9749 233.943 88.9749Z" fill="white"/>
<path d="M242.758 88.9749H236.649C236.249 88.9749 235.925 88.6511 235.925 88.2516C235.925 87.8521 236.249 87.5283 236.649 87.5283H242.758C243.158 87.5283 243.482 87.8521 243.482 88.2516C243.482 88.6511 243.158 88.9749 242.758 88.9749Z" fill="white"/>
<path d="M252.078 88.9749H246.966C246.566 88.9749 246.242 88.6511 246.242 88.2516C246.242 87.8521 246.566 87.5283 246.966 87.5283H252.074C252.474 87.5283 252.798 87.8521 252.798 88.2516C252.798 88.6511 252.478 88.9749 252.078 88.9749Z" fill="white"/>
<path d="M296.055 88.9749H258.588C258.188 88.9749 257.864 88.6511 257.864 88.2516C257.864 87.8521 258.188 87.5283 258.588 87.5283H296.055C296.454 87.5283 296.778 87.8521 296.778 88.2516C296.778 88.6511 296.454 88.9749 296.055 88.9749Z" fill="white"/>
<path d="M240.857 95.0347H237.65C237.251 95.0347 236.927 94.7109 236.927 94.3114C236.927 93.9119 237.251 93.5881 237.65 93.5881H240.857C241.257 93.5881 241.581 93.9119 241.581 94.3114C241.581 94.7109 241.257 95.0347 240.857 95.0347Z" fill="white"/>
<path d="M249.672 95.0347H243.563C243.163 95.0347 242.839 94.7109 242.839 94.3114C242.839 93.9119 243.163 93.5881 243.563 93.5881H249.672C250.072 93.5881 250.396 93.9119 250.396 94.3114C250.396 94.7109 250.072 95.0347 249.672 95.0347Z" fill="white"/>
<path d="M258.988 95.0347H253.88C253.48 95.0347 253.156 94.7109 253.156 94.3114C253.156 93.9119 253.48 93.5881 253.88 93.5881H258.988C259.388 93.5881 259.712 93.9119 259.712 94.3114C259.712 94.7109 259.388 95.0347 258.988 95.0347Z" fill="white"/>
<path d="M302.969 95.0347H265.502C265.102 95.0347 264.778 94.7109 264.778 94.3114C264.778 93.9119 265.102 93.5881 265.502 93.5881H302.969C303.369 93.5881 303.693 93.9119 303.693 94.3114C303.693 94.7109 303.369 95.0347 302.969 95.0347Z" fill="white"/>
<path d="M230.438 101.09H227.232C226.832 101.09 226.508 100.766 226.508 100.367C226.508 99.9674 226.832 99.6436 227.232 99.6436H230.438C230.838 99.6436 231.162 99.9674 231.162 100.367C231.162 100.766 230.838 101.09 230.438 101.09Z" fill="white"/>
<path d="M239.253 101.09H233.144C232.744 101.09 232.42 100.766 232.42 100.367C232.42 99.9674 232.744 99.6436 233.144 99.6436H239.253C239.653 99.6436 239.977 99.9674 239.977 100.367C239.977 100.766 239.653 101.09 239.253 101.09Z" fill="white"/>
<path d="M248.569 101.09H243.461C243.061 101.09 242.737 100.766 242.737 100.367C242.737 99.9674 243.061 99.6436 243.461 99.6436H248.569C248.969 99.6436 249.293 99.9674 249.293 100.367C249.293 100.766 248.969 101.09 248.569 101.09Z" fill="white"/>
<path d="M292.55 101.09H255.083C254.683 101.09 254.359 100.766 254.359 100.367C254.359 99.9674 254.683 99.6436 255.083 99.6436H292.55C292.95 99.6436 293.274 99.9674 293.274 100.367C293.274 100.766 292.95 101.09 292.55 101.09Z" fill="white"/>
<path d="M240.857 107.15H237.65C237.251 107.15 236.927 106.826 236.927 106.427C236.927 106.027 237.251 105.704 237.65 105.704H240.857C241.257 105.704 241.581 106.027 241.581 106.427C241.581 106.826 241.257 107.15 240.857 107.15Z" fill="white"/>
<path d="M249.672 107.15H243.563C243.163 107.15 242.839 106.826 242.839 106.427C242.839 106.027 243.163 105.704 243.563 105.704H249.672C250.072 105.704 250.396 106.027 250.396 106.427C250.396 106.826 250.072 107.15 249.672 107.15Z" fill="white"/>
<path d="M258.988 107.15H253.88C253.48 107.15 253.156 106.826 253.156 106.427C253.156 106.027 253.48 105.704 253.88 105.704H258.988C259.388 105.704 259.712 106.027 259.712 106.427C259.712 106.826 259.388 107.15 258.988 107.15Z" fill="white"/>
<path d="M302.969 107.15H265.502C265.102 107.15 264.778 106.826 264.778 106.427C264.778 106.027 265.102 105.704 265.502 105.704H302.969C303.369 105.704 303.693 106.027 303.693 106.427C303.693 106.826 303.369 107.15 302.969 107.15Z" fill="white"/>
<path d="M240.857 113.206H237.65C237.251 113.206 236.927 112.882 236.927 112.482C236.927 112.083 237.251 111.759 237.65 111.759H240.857C241.257 111.759 241.581 112.083 241.581 112.482C241.581 112.882 241.257 113.206 240.857 113.206Z" fill="white"/>
<path d="M249.672 113.206H243.563C243.163 113.206 242.839 112.882 242.839 112.482C242.839 112.083 243.163 111.759 243.563 111.759H249.672C250.072 111.759 250.396 112.083 250.396 112.482C250.396 112.882 250.072 113.206 249.672 113.206Z" fill="white"/>
<path d="M258.988 113.206H253.88C253.48 113.206 253.156 112.882 253.156 112.482C253.156 112.083 253.48 111.759 253.88 111.759H258.988C259.388 111.759 259.712 112.083 259.712 112.482C259.712 112.882 259.388 113.206 258.988 113.206Z" fill="white"/>
<path d="M302.969 113.206H265.502C265.102 113.206 264.778 112.882 264.778 112.482C264.778 112.083 265.102 111.759 265.502 111.759H302.969C303.369 111.759 303.693 112.083 303.693 112.482C303.693 112.882 303.369 113.206 302.969 113.206Z" fill="white"/>
<path d="M221.9 54.1971C221.501 54.1971 221.177 53.8733 221.177 53.4738V43.7597C221.177 43.3602 221.501 43.0364 221.9 43.0364C222.3 43.0364 222.624 43.3602 222.624 43.7597V53.4738C222.624 53.8733 222.3 54.1971 221.9 54.1971Z" fill="#FFB900"/>
<path d="M221.9 80.9089C221.501 80.9089 221.177 80.5851 221.177 80.1856V61.6698C221.177 61.2703 221.501 60.9465 221.9 60.9465C222.3 60.9465 222.624 61.2703 222.624 61.6698V80.1856C222.624 80.5851 222.3 80.9089 221.9 80.9089Z" fill="#FFB900"/>
<path d="M221.9 109.143C221.501 109.143 221.177 108.819 221.177 108.42V92.9359C221.177 92.5364 221.501 92.2126 221.9 92.2126C222.3 92.2126 222.624 92.5364 222.624 92.9359V108.42C222.624 108.819 222.3 109.143 221.9 109.143Z" fill="#FFB900"/>
<path d="M221.9 242.407C221.501 242.407 221.177 242.083 221.177 241.684V128.151C221.177 127.751 221.501 127.427 221.9 127.427C222.3 127.427 222.624 127.751 222.624 128.151V241.684C222.624 242.083 222.3 242.407 221.9 242.407Z" fill="#FFB900"/>
<path d="M209.777 54.1971C209.378 54.1971 209.054 53.8733 209.054 53.4738V43.7597C209.054 43.3602 209.378 43.0364 209.777 43.0364C210.177 43.0364 210.501 43.3602 210.501 43.7597V53.4738C210.501 53.8733 210.177 54.1971 209.777 54.1971Z" fill="#FFB900"/>
<path d="M209.777 80.9089C209.378 80.9089 209.054 80.5851 209.054 80.1856V61.6698C209.054 61.2703 209.378 60.9465 209.777 60.9465C210.177 60.9465 210.501 61.2703 210.501 61.6698V80.1856C210.501 80.5851 210.177 80.9089 209.777 80.9089Z" fill="#FFB900"/>
<path d="M209.777 109.143C209.378 109.143 209.054 108.819 209.054 108.42V92.9359C209.054 92.5364 209.378 92.2126 209.777 92.2126C210.177 92.2126 210.501 92.5364 210.501 92.9359V108.42C210.501 108.819 210.177 109.143 209.777 109.143Z" fill="#FFB900"/>
<path d="M209.777 242.407C209.378 242.407 209.054 242.083 209.054 241.684V128.151C209.054 127.751 209.378 127.427 209.777 127.427C210.177 127.427 210.501 127.751 210.501 128.151V241.684C210.501 242.083 210.177 242.407 209.777 242.407Z" fill="#FFB900"/>
<path d="M203.718 33.2508C203.318 33.2508 202.994 32.9271 202.994 32.5276V22.8134C202.994 22.4139 203.318 22.0901 203.718 22.0901C204.118 22.0901 204.442 22.4139 204.442 22.8134V32.5276C204.437 32.9271 204.118 33.2508 203.718 33.2508Z" fill="#FFB900"/>
<path d="M203.718 59.9626C203.318 59.9626 202.994 59.6388 202.994 59.2393V40.7235C202.994 40.324 203.318 40.0002 203.718 40.0002C204.118 40.0002 204.442 40.324 204.442 40.7235V59.2393C204.437 59.643 204.118 59.9626 203.718 59.9626Z" fill="#FFB900"/>
<path d="M203.718 88.1965C203.318 88.1965 202.994 87.8727 202.994 87.4732V71.9895C202.994 71.59 203.318 71.2661 203.718 71.2661C204.118 71.2661 204.442 71.59 204.442 71.9895V87.4732C204.437 87.8727 204.118 88.1965 203.718 88.1965Z" fill="#FFB900"/>
<path d="M203.718 221.461C203.318 221.461 202.994 221.137 202.994 220.738V107.204C202.994 106.805 203.318 106.481 203.718 106.481C204.118 106.481 204.442 106.805 204.442 107.204V220.738C204.437 221.137 204.118 221.461 203.718 221.461Z" fill="#FFB900"/>
<path d="M197.654 54.1971C197.255 54.1971 196.931 53.8733 196.931 53.4738V43.7597C196.931 43.3602 197.255 43.0364 197.654 43.0364C198.054 43.0364 198.378 43.3602 198.378 43.7597V53.4738C198.378 53.8733 198.054 54.1971 197.654 54.1971Z" fill="#FFB900"/>
<path d="M197.654 80.9089C197.255 80.9089 196.931 80.5851 196.931 80.1856V61.6698C196.931 61.2703 197.255 60.9465 197.654 60.9465C198.054 60.9465 198.378 61.2703 198.378 61.6698V80.1856C198.378 80.5851 198.054 80.9089 197.654 80.9089Z" fill="#FFB900"/>
<path d="M197.654 109.143C197.255 109.143 196.931 108.819 196.931 108.42V92.9359C196.931 92.5364 197.255 92.2126 197.654 92.2126C198.054 92.2126 198.378 92.5364 198.378 92.9359V108.42C198.378 108.819 198.054 109.143 197.654 109.143Z" fill="#FFB900"/>
<path d="M197.654 242.407C197.255 242.407 196.931 242.083 196.931 241.684V128.151C196.931 127.751 197.255 127.427 197.654 127.427C198.054 127.427 198.378 127.751 198.378 128.151V241.684C198.378 242.083 198.054 242.407 197.654 242.407Z" fill="#FFB900"/>
<path d="M185.532 54.1971C185.133 54.1971 184.809 53.8733 184.809 53.4738V43.7597C184.809 43.3602 185.133 43.0364 185.532 43.0364C185.932 43.0364 186.256 43.3602 186.256 43.7597V53.4738C186.256 53.8733 185.932 54.1971 185.532 54.1971Z" fill="#FFB900"/>
<path d="M185.532 80.9089C185.133 80.9089 184.809 80.5851 184.809 80.1856V61.6698C184.809 61.2703 185.133 60.9465 185.532 60.9465C185.932 60.9465 186.256 61.2703 186.256 61.6698V80.1856C186.256 80.5851 185.932 80.9089 185.532 80.9089Z" fill="#FFB900"/>
<path d="M185.532 109.143C185.133 109.143 184.809 108.819 184.809 108.42V92.9359C184.809 92.5364 185.133 92.2126 185.532 92.2126C185.932 92.2126 186.256 92.5364 186.256 92.9359V108.42C186.256 108.819 185.932 109.143 185.532 109.143Z" fill="#FFB900"/>
<path d="M185.532 242.407C185.133 242.407 184.809 242.083 184.809 241.684V128.151C184.809 127.751 185.133 127.427 185.532 127.427C185.932 127.427 186.256 127.751 186.256 128.151V241.684C186.256 242.083 185.932 242.407 185.532 242.407Z" fill="#FFB900"/>
<path d="M179.473 54.1971C179.073 54.1971 178.749 53.8733 178.749 53.4738V43.7597C178.749 43.3602 179.073 43.0364 179.473 43.0364C179.873 43.0364 180.197 43.3602 180.197 43.7597V53.4738C180.197 53.8733 179.873 54.1971 179.473 54.1971Z" fill="#FFB900"/>
<path d="M179.473 80.9089C179.073 80.9089 178.749 80.5851 178.749 80.1856V61.6698C178.749 61.2703 179.073 60.9465 179.473 60.9465C179.873 60.9465 180.197 61.2703 180.197 61.6698V80.1856C180.197 80.5851 179.873 80.9089 179.473 80.9089Z" fill="#FFB900"/>
<path d="M179.473 109.143C179.073 109.143 178.749 108.819 178.749 108.42V92.9359C178.749 92.5364 179.073 92.2126 179.473 92.2126C179.873 92.2126 180.197 92.5364 180.197 92.9359V108.42C180.197 108.819 179.873 109.143 179.473 109.143Z" fill="#FFB900"/>
<path d="M179.473 242.407C179.073 242.407 178.749 242.083 178.749 241.684V128.151C178.749 127.751 179.073 127.427 179.473 127.427C179.873 127.427 180.197 127.751 180.197 128.151V241.684C180.197 242.083 179.873 242.407 179.473 242.407Z" fill="#FFB900"/>
<path d="M40.7191 436.514H97.0748C106.618 436.514 114.424 428.713 114.424 419.176V101.696C114.424 92.1582 106.618 84.3574 97.0748 84.3574H40.7191C31.1757 84.3574 23.3701 92.1582 23.3701 101.696V419.176C23.3701 428.709 31.1799 436.514 40.7191 436.514Z" fill="#D94A3D"/>
<path d="M119.961 234.981H87.4597C81.9516 234.981 77.4492 239.485 77.4492 244.985V454.996C77.4492 460.496 81.9558 465 87.4597 465H119.961C125.469 465 129.972 460.496 129.972 454.996V244.985C129.972 239.485 125.465 234.981 119.961 234.981Z" fill="url(#paint1_linear)"/>
<path d="M42.5119 317.139H10.0105C4.5024 317.139 0 321.643 0 327.143V409.709C0 415.21 4.5066 419.714 10.0105 419.714H42.5119C48.02 419.714 52.5224 415.21 52.5224 409.709V327.143C52.5224 321.643 48.0158 317.139 42.5119 317.139Z" fill="url(#paint2_linear)"/>
<path d="M55.9429 111.343H52.9806C52.5808 111.343 52.2568 111.019 52.2568 110.619C52.2568 110.22 52.5808 109.896 52.9806 109.896H55.9429C56.3426 109.896 56.6666 110.22 56.6666 110.619C56.6666 111.019 56.3426 111.343 55.9429 111.343Z" fill="white"/>
<path d="M64.0852 111.343H58.4425C58.0428 111.343 57.7188 111.019 57.7188 110.619C57.7188 110.22 58.0428 109.896 58.4425 109.896H64.0852C64.485 109.896 64.809 110.22 64.809 110.619C64.809 111.019 64.485 111.343 64.0852 111.343Z" fill="white"/>
<path d="M72.694 111.343H67.9728C67.573 111.343 67.249 111.019 67.249 110.619C67.249 110.22 67.573 109.896 67.9728 109.896H72.694C73.0937 109.896 73.4177 110.22 73.4177 110.619C73.4177 111.019 73.0937 111.343 72.694 111.343Z" fill="white"/>
<path d="M113.317 111.343H78.7071C78.3074 111.343 77.9834 111.019 77.9834 110.619C77.9834 110.22 78.3074 109.896 78.7071 109.896H113.317C113.716 109.896 114.04 110.22 114.04 110.619C114.04 111.019 113.712 111.343 113.317 111.343Z" fill="white"/>
<path d="M55.9429 116.94H52.9806C52.5808 116.94 52.2568 116.616 52.2568 116.216C52.2568 115.817 52.5808 115.493 52.9806 115.493H55.9429C56.3426 115.493 56.6666 115.817 56.6666 116.216C56.6666 116.616 56.3426 116.94 55.9429 116.94Z" fill="white"/>
<path d="M64.0852 116.94H58.4425C58.0428 116.94 57.7188 116.616 57.7188 116.216C57.7188 115.817 58.0428 115.493 58.4425 115.493H64.0852C64.485 115.493 64.809 115.817 64.809 116.216C64.809 116.616 64.485 116.94 64.0852 116.94Z" fill="white"/>
<path d="M72.694 116.94H67.9728C67.573 116.94 67.249 116.616 67.249 116.216C67.249 115.817 67.573 115.493 67.9728 115.493H72.694C73.0937 115.493 73.4177 115.817 73.4177 116.216C73.4177 116.616 73.0937 116.94 72.694 116.94Z" fill="white"/>
<path d="M113.317 116.94H78.7071C78.3074 116.94 77.9834 116.616 77.9834 116.216C77.9834 115.817 78.3074 115.493 78.7071 115.493H113.317C113.716 115.493 114.04 115.817 114.04 116.216C114.04 116.616 113.712 116.94 113.317 116.94Z" fill="white"/>
<path d="M55.9429 122.533H52.9806C52.5808 122.533 52.2568 122.209 52.2568 121.81C52.2568 121.41 52.5808 121.086 52.9806 121.086H55.9429C56.3426 121.086 56.6666 121.41 56.6666 121.81C56.6666 122.209 56.3426 122.533 55.9429 122.533Z" fill="white"/>
<path d="M64.0852 122.533H58.4425C58.0428 122.533 57.7188 122.209 57.7188 121.81C57.7188 121.41 58.0428 121.086 58.4425 121.086H64.0852C64.485 121.086 64.809 121.41 64.809 121.81C64.809 122.209 64.485 122.533 64.0852 122.533Z" fill="white"/>
<path d="M72.694 122.533H67.9728C67.573 122.533 67.249 122.209 67.249 121.81C67.249 121.41 67.573 121.086 67.9728 121.086H72.694C73.0937 121.086 73.4177 121.41 73.4177 121.81C73.4177 122.209 73.0937 122.533 72.694 122.533Z" fill="white"/>
<path d="M113.317 122.533H78.7071C78.3074 122.533 77.9834 122.209 77.9834 121.81C77.9834 121.41 78.3074 121.086 78.7071 121.086H113.317C113.716 121.086 114.04 121.41 114.04 121.81C114.04 122.209 113.712 122.533 113.317 122.533Z" fill="white"/>
<path d="M49.5601 128.13H46.5978C46.198 128.13 45.874 127.806 45.874 127.407C45.874 127.007 46.198 126.683 46.5978 126.683H49.5601C49.9599 126.683 50.2839 127.007 50.2839 127.407C50.2839 127.806 49.9599 128.13 49.5601 128.13Z" fill="white"/>
<path d="M57.7024 128.13H52.0597C51.6599 128.13 51.3359 127.806 51.3359 127.407C51.3359 127.007 51.6599 126.683 52.0597 126.683H57.7024C58.1022 126.683 58.4262 127.007 58.4262 127.407C58.4262 127.806 58.1022 128.13 57.7024 128.13Z" fill="white"/>
<path d="M66.307 128.13H61.59C61.1902 128.13 60.8662 127.806 60.8662 127.407C60.8662 127.007 61.1902 126.683 61.59 126.683H66.307C66.7067 126.683 67.0307 127.007 67.0307 127.407C67.0307 127.806 66.7067 128.13 66.307 128.13Z" fill="white"/>
<path d="M106.93 128.13H72.3204C71.9207 128.13 71.5967 127.806 71.5967 127.407C71.5967 127.007 71.9207 126.683 72.3204 126.683H106.93C107.33 126.683 107.654 127.007 107.654 127.407C107.654 127.806 107.33 128.13 106.93 128.13Z" fill="white"/>
<path d="M55.9429 133.723H52.9806C52.5808 133.723 52.2568 133.399 52.2568 133C52.2568 132.6 52.5808 132.276 52.9806 132.276H55.9429C56.3426 132.276 56.6666 132.6 56.6666 133C56.6666 133.399 56.3426 133.723 55.9429 133.723Z" fill="white"/>
<path d="M64.0852 133.723H58.4425C58.0428 133.723 57.7188 133.399 57.7188 133C57.7188 132.6 58.0428 132.276 58.4425 132.276H64.0852C64.485 132.276 64.809 132.6 64.809 133C64.809 133.399 64.485 133.723 64.0852 133.723Z" fill="white"/>
<path d="M72.694 133.723H67.9728C67.573 133.723 67.249 133.399 67.249 133C67.249 132.6 67.573 132.276 67.9728 132.276H72.694C73.0937 132.276 73.4177 132.6 73.4177 133C73.4135 133.399 73.0937 133.723 72.694 133.723Z" fill="white"/>
<path d="M113.317 133.723H78.7071C78.3074 133.723 77.9834 133.399 77.9834 133C77.9834 132.6 78.3074 132.276 78.7071 132.276H113.317C113.716 132.276 114.04 132.6 114.04 133C114.036 133.399 113.712 133.723 113.317 133.723Z" fill="white"/>
<path d="M46.3198 139.32H43.3575C42.9578 139.32 42.6338 138.996 42.6338 138.597C42.6338 138.197 42.9578 137.874 43.3575 137.874H46.3198C46.7196 137.874 47.0436 138.197 47.0436 138.597C47.0436 138.996 46.7196 139.32 46.3198 139.32Z" fill="white"/>
<path d="M54.4622 139.32H48.8195C48.4197 139.32 48.0957 138.996 48.0957 138.597C48.0957 138.197 48.4197 137.874 48.8195 137.874H54.4622C54.8619 137.874 55.1859 138.197 55.1859 138.597C55.1859 138.996 54.8619 139.32 54.4622 139.32Z" fill="white"/>
<path d="M63.0667 139.32H58.3497C57.95 139.32 57.626 138.996 57.626 138.597C57.626 138.197 57.95 137.874 58.3497 137.874H63.0667C63.4665 137.874 63.7905 138.197 63.7905 138.597C63.7905 138.996 63.4665 139.32 63.0667 139.32Z" fill="white"/>
<path d="M103.69 139.32H69.0802C68.6805 139.32 68.3564 138.996 68.3564 138.597C68.3564 138.197 68.6805 137.874 69.0802 137.874H103.69C104.09 137.874 104.414 138.197 104.414 138.597C104.414 138.996 104.09 139.32 103.69 139.32Z" fill="white"/>
<path d="M55.9429 144.913H52.9806C52.5808 144.913 52.2568 144.589 52.2568 144.19C52.2568 143.79 52.5808 143.467 52.9806 143.467H55.9429C56.3426 143.467 56.6666 143.79 56.6666 144.19C56.6666 144.589 56.3426 144.913 55.9429 144.913Z" fill="white"/>
<path d="M64.0852 144.913H58.4425C58.0428 144.913 57.7188 144.589 57.7188 144.19C57.7188 143.79 58.0428 143.467 58.4425 143.467H64.0852C64.485 143.467 64.809 143.79 64.809 144.19C64.809 144.589 64.485 144.913 64.0852 144.913Z" fill="white"/>
<path d="M72.694 144.913H67.9728C67.573 144.913 67.249 144.589 67.249 144.19C67.249 143.79 67.573 143.467 67.9728 143.467H72.694C73.0937 143.467 73.4177 143.79 73.4177 144.19C73.4177 144.589 73.0937 144.913 72.694 144.913Z" fill="white"/>
<path d="M113.317 144.913H78.7071C78.3074 144.913 77.9834 144.589 77.9834 144.19C77.9834 143.79 78.3074 143.467 78.7071 143.467H113.317C113.716 143.467 114.04 143.79 114.04 144.19C114.04 144.589 113.712 144.913 113.317 144.913Z" fill="white"/>
<path d="M55.9429 150.51H52.9806C52.5808 150.51 52.2568 150.186 52.2568 149.787C52.2568 149.387 52.5808 149.063 52.9806 149.063H55.9429C56.3426 149.063 56.6666 149.387 56.6666 149.787C56.6666 150.186 56.3426 150.51 55.9429 150.51Z" fill="white"/>
<path d="M64.0852 150.51H58.4425C58.0428 150.51 57.7188 150.186 57.7188 149.787C57.7188 149.387 58.0428 149.063 58.4425 149.063H64.0852C64.485 149.063 64.809 149.387 64.809 149.787C64.809 150.186 64.485 150.51 64.0852 150.51Z" fill="white"/>
<path d="M72.694 150.51H67.9728C67.573 150.51 67.249 150.186 67.249 149.787C67.249 149.387 67.573 149.063 67.9728 149.063H72.694C73.0937 149.063 73.4177 149.387 73.4177 149.787C73.4177 150.186 73.0937 150.51 72.694 150.51Z" fill="white"/>
<path d="M113.317 150.51H78.7071C78.3074 150.51 77.9834 150.186 77.9834 149.787C77.9834 149.387 78.3074 149.063 78.7071 149.063H113.317C113.716 149.063 114.04 149.387 114.04 149.787C114.04 150.186 113.712 150.51 113.317 150.51Z" fill="white"/>
<defs>
<linearGradient id="paint0_linear" x1="306.574" y1="107.183" x2="306.574" y2="349.163" gradientUnits="userSpaceOnUse">
<stop stop-color="#6A6A61"/>
<stop offset="1" stop-color="white"/>
</linearGradient>
<linearGradient id="paint1_linear" x1="103.709" y1="196.235" x2="103.709" y2="382.049" gradientUnits="userSpaceOnUse">
<stop stop-color="#FF7A46"/>
<stop offset="1" stop-color="white"/>
</linearGradient>
<linearGradient id="paint2_linear" x1="26.2591" y1="299.86" x2="26.2591" y2="382.721" gradientUnits="userSpaceOnUse">
<stop stop-color="#D94A3D"/>
<stop offset="1" stop-color="white"/>
</linearGradient>
</defs>
</svg>
