<svg width="223" height="47" viewBox="0 0 223 47" fill="none" xmlns="http://www.w3.org/2000/svg">
<path d="M22.4865 26.3944C22.4865 29.5451 21.6931 31.8457 20.1065 33.2964C18.5198 34.7244 16.1738 35.4384 13.0685 35.4384C9.78179 35.4384 7.39046 34.6564 5.89446 33.0924C4.39845 31.5057 3.65045 29.0804 3.65045 25.8164V10.4144C3.65045 10.0517 3.79779 9.87039 4.09245 9.87039H7.32245C7.61712 9.87039 7.76445 10.0404 7.76445 10.3804V26.5304C7.76445 30.4291 9.63445 32.3784 13.3745 32.3784C17.1825 32.3784 19.0865 30.3951 19.0865 26.4284V10.3804C19.0865 10.0404 19.2225 9.87039 19.4945 9.87039H22.0785C22.3505 9.87039 22.4865 10.0291 22.4865 10.3464V26.3944ZM41.7267 35.0984C41.3641 35.0984 41.1827 34.9171 41.1827 34.5544V17.5884C41.1827 17.2484 41.3301 17.0784 41.6247 17.0784H44.3107C44.5827 17.0784 44.7187 17.2257 44.7187 17.5204V19.3904C44.7187 19.5264 44.7414 19.6057 44.7867 19.6284C44.8547 19.6511 44.9454 19.6057 45.0587 19.4924C46.2374 18.5404 47.2801 17.8491 48.1867 17.4184C49.0934 16.9651 50.0794 16.7384 51.1447 16.7384C52.8447 16.7384 54.1707 17.2144 55.1227 18.1664C56.0974 19.0957 56.5847 20.3537 56.5847 21.9404V34.4864C56.5847 34.8944 56.3921 35.0984 56.0067 35.0984H53.4907C53.1507 35.0984 52.9807 34.9171 52.9807 34.5544V22.6544C52.9807 21.6344 52.7087 20.8524 52.1647 20.3084C51.6434 19.7417 50.8501 19.4584 49.7847 19.4584C48.9234 19.4584 48.1187 19.6624 47.3707 20.0704C46.6454 20.4557 45.7841 21.1017 44.7867 22.0084V34.5204C44.7867 34.7244 44.7301 34.8717 44.6167 34.9624C44.5261 35.0531 44.3674 35.0984 44.1407 35.0984H41.7267ZM120.019 34.4524C120.019 34.7017 119.963 34.8717 119.849 34.9624C119.759 35.0531 119.577 35.0984 119.305 35.0984H116.993C116.767 35.0984 116.608 35.0644 116.517 34.9964C116.427 34.9057 116.381 34.7584 116.381 34.5544L116.449 10.3804C116.449 10.0404 116.597 9.87039 116.891 9.87039H119.577C119.872 9.87039 120.019 10.0404 120.019 10.3804V34.4524ZM141.169 27.3464C141.169 28.3664 141.407 29.2957 141.883 30.1344C142.381 30.9504 143.05 31.6077 143.889 32.1064C144.727 32.5824 145.645 32.8204 146.643 32.8204C147.685 32.8204 148.615 32.6051 149.431 32.1744C150.247 31.7437 150.995 31.0751 151.675 30.1684C151.743 30.0777 151.822 30.0324 151.913 30.0324C152.026 30.0324 152.117 30.0551 152.185 30.1004L153.919 30.9164C154.032 30.9844 154.089 31.0751 154.089 31.1884C154.089 31.2564 154.055 31.3471 153.987 31.4604C153.035 32.8657 151.947 33.8857 150.723 34.5204C149.499 35.1324 148.014 35.4384 146.269 35.4384C144.569 35.4384 143.05 35.0531 141.713 34.2824C140.375 33.5117 139.333 32.4351 138.585 31.0524C137.837 29.6471 137.463 28.0604 137.463 26.2924C137.463 24.3884 137.848 22.7111 138.619 21.2604C139.389 19.8097 140.432 18.6991 141.747 17.9284C143.084 17.1351 144.569 16.7384 146.201 16.7384C147.878 16.7384 149.351 17.1124 150.621 17.8604C151.89 18.5857 152.865 19.6511 153.545 21.0564C154.247 22.4617 154.599 24.1277 154.599 26.0544V26.1904C154.599 26.3944 154.565 26.5531 154.497 26.6664C154.451 26.7571 154.315 26.8024 154.089 26.8024H141.509C141.282 26.8024 141.169 26.9837 141.169 27.3464ZM150.451 24.6604C150.677 24.6604 150.825 24.6264 150.893 24.5584C150.983 24.4904 151.029 24.3657 151.029 24.1844C151.029 23.3004 150.836 22.4731 150.451 21.7024C150.088 20.9317 149.544 20.3197 148.819 19.8664C148.116 19.3904 147.277 19.1524 146.303 19.1524C145.283 19.1524 144.387 19.4131 143.617 19.9344C142.846 20.4331 142.245 21.1017 141.815 21.9404C141.407 22.7564 141.214 23.6517 141.237 24.6264L150.451 24.6604ZM182.106 33.0584C180.451 34.6451 178.513 35.4384 176.292 35.4384C174.546 35.4384 173.164 34.9964 172.144 34.1124C171.146 33.2057 170.648 32.0044 170.648 30.5084C170.648 28.6724 171.441 27.2104 173.028 26.1224C174.637 25.0344 176.915 24.4224 179.862 24.2864L182.072 24.1164C182.434 24.0711 182.616 23.9011 182.616 23.6064V22.7564C182.616 21.6457 182.276 20.7731 181.596 20.1384C180.916 19.4811 179.986 19.1524 178.808 19.1524C176.949 19.1524 175.464 19.9911 174.354 21.6684C174.286 21.8044 174.206 21.8951 174.116 21.9404C174.048 21.9631 173.934 21.9517 173.776 21.9064L171.464 21.2264C171.328 21.1811 171.26 21.0904 171.26 20.9544C171.26 20.8637 171.294 20.7391 171.362 20.5804C171.996 19.3564 172.96 18.4157 174.252 17.7584C175.566 17.0784 177.142 16.7384 178.978 16.7384C181.358 16.7384 183.137 17.2484 184.316 18.2684C185.494 19.2884 186.084 20.7051 186.084 22.5184V34.5204C186.084 34.7471 186.038 34.9057 185.948 34.9964C185.88 35.0644 185.755 35.0984 185.574 35.0984H183.296C182.978 35.0984 182.797 34.8717 182.752 34.4184L182.684 33.1264C182.638 32.9451 182.57 32.8544 182.48 32.8544C182.412 32.8544 182.287 32.9224 182.106 33.0584ZM182.616 26.6324C182.616 26.2697 182.457 26.0997 182.14 26.1224L180.304 26.2584C178.422 26.3717 176.926 26.7571 175.816 27.4144C174.728 28.0491 174.184 28.9331 174.184 30.0664C174.184 30.9504 174.501 31.6531 175.136 32.1744C175.77 32.6731 176.62 32.9224 177.686 32.9224C178.91 32.9224 180.066 32.5031 181.154 31.6644C182.128 30.8711 182.616 30.0777 182.616 29.2844V26.6324ZM207.19 17.0784C207.575 17.0784 207.768 17.2597 207.768 17.6224V18.9484C207.768 19.1297 207.813 19.2204 207.904 19.2204C207.949 19.2204 208.051 19.1637 208.21 19.0504C208.89 18.3704 209.604 17.8151 210.352 17.3844C211.122 16.9537 212.142 16.7384 213.412 16.7384C214.817 16.7384 216.064 17.0784 217.152 17.7584C218.262 18.4384 219.135 19.4584 219.77 20.8184C220.404 22.1784 220.722 23.8557 220.722 25.8504C220.722 27.8904 220.404 29.6357 219.77 31.0864C219.135 32.5144 218.24 33.6024 217.084 34.3504C215.928 35.0757 214.59 35.4384 213.072 35.4384C211.236 35.4384 209.66 34.8717 208.346 33.7384C208.164 33.5797 208.028 33.5004 207.938 33.5004C207.824 33.5004 207.768 33.6477 207.768 33.9424V40.2324C207.768 40.5497 207.632 40.7084 207.36 40.7084H204.606C204.311 40.7084 204.164 40.5497 204.164 40.2324V17.6904C204.164 17.4637 204.209 17.3051 204.3 17.2144C204.413 17.1237 204.583 17.0784 204.81 17.0784H207.19ZM207.768 30.9164C208.425 31.5964 209.082 32.1177 209.74 32.4804C210.42 32.8204 211.156 32.9904 211.95 32.9904C213.514 32.9904 214.749 32.3897 215.656 31.1884C216.585 29.9644 217.05 28.1851 217.05 25.8504C217.05 23.5837 216.596 21.9064 215.69 20.8184C214.783 19.7304 213.593 19.1864 212.12 19.1864C211.304 19.1864 210.556 19.3677 209.876 19.7304C209.218 20.0704 208.697 20.5237 208.312 21.0904C207.949 21.6344 207.768 22.1784 207.768 22.7224V30.9164Z" fill="#D94A3D"/>
<path d="M103.508 19.149C103.603 20.3297 103.387 21.4876 103.248 22.6489C103.183 23.1963 103.018 23.7322 102.889 24.2712C102.79 24.6846 102.684 25.097 102.565 25.5051C102.476 25.8093 102.366 26.1077 102.255 26.4048C102.127 26.746 101.999 27.0877 101.851 27.4202C101.668 27.8328 101.474 28.2402 101.268 28.6424C101.091 28.9908 100.897 29.332 100.701 29.6701C100.515 29.9906 100.331 30.3148 100.117 30.6166C99.7464 31.1392 99.3771 31.6663 98.9624 32.1535C98.4984 32.6986 97.9951 33.2109 97.4898 33.7179C97.1622 34.0466 96.808 34.3506 96.4499 34.6465C96.1601 34.8859 95.8504 35.1021 95.5422 35.3185C95.2126 35.5502 94.8765 35.7739 94.5392 35.9941C94.3664 36.1107 94.1863 36.2162 94 36.3098C93.552 36.5266 93.0991 36.7337 92.6453 36.938C92.3259 37.0817 92.006 37.2256 91.6788 37.3492C91.3768 37.4661 91.0681 37.5648 90.7543 37.6449C90.2299 37.7735 89.7012 37.8861 89.171 37.9881C88.08 38.1987 86.9672 38.2742 85.8578 38.2129C84.8978 38.1606 83.9473 38.0339 83.0161 37.783C82.5604 37.6602 82.0991 37.5547 81.6497 37.4122C81.3041 37.3025 80.9711 37.1518 80.636 37.0105C80.3756 36.9006 80.1174 36.7846 79.8646 36.6584C79.559 36.5056 79.2563 36.3461 78.9593 36.177C78.5962 35.9711 78.2364 35.7618 77.8868 35.5357C77.5878 35.3421 77.2961 35.1344 77.0178 34.9119C76.6389 34.6092 76.2613 34.3019 75.9083 33.9689C75.4385 33.5248 74.9761 33.0694 74.5437 32.589C74.1454 32.1478 73.7728 31.6841 73.4277 31.2002C73.0459 30.6624 72.6945 30.1006 72.36 29.5318C72.0597 29.0213 71.7823 28.4953 71.5283 27.9601C71.3091 27.4983 71.1324 27.0157 70.945 26.5389C70.8167 26.2123 70.6963 25.8826 70.5839 25.5498C70.483 25.2492 70.3822 24.947 70.3095 24.6386C70.1915 24.1319 70.1153 23.6151 69.9898 23.1105C69.7643 22.2038 69.7381 21.2736 69.6453 20.3525C69.5444 19.3529 69.5714 18.3503 69.7014 17.3525C69.8071 16.5414 69.8974 15.7273 70.0342 14.9213C70.1221 14.4033 70.2763 13.8959 70.412 13.3872C70.5117 13.0158 70.624 12.6472 70.7442 12.2818C70.8433 11.9804 70.9559 11.6831 71.0737 11.3886C71.1864 11.107 71.3066 10.828 71.4368 10.5539C71.6443 10.1159 71.8491 9.67563 72.0806 9.25011C72.3154 8.81834 72.5599 8.38878 72.8383 7.98466C73.2855 7.33508 73.7376 6.6851 74.2376 6.0765C74.6956 5.51574 75.1921 4.98755 75.7233 4.49575C76.2916 3.97354 76.9135 3.50947 77.5251 3.0351C77.8375 2.79109 78.1644 2.56634 78.504 2.36211C78.896 2.12775 79.3069 1.92468 79.7132 1.71475C79.9877 1.57345 80.2657 1.43659 80.5473 1.30901C80.8045 1.19234 81.0633 1.07486 81.3308 0.98604C81.7205 0.856245 82.1154 0.739168 82.5138 0.63945C82.9849 0.521363 83.4635 0.43416 83.936 0.321725C85.1499 0.0324618 86.3824 0.103516 87.6136 0.1126C88.4067 0.118454 89.1682 0.321927 89.9404 0.450309C90.4019 0.527217 90.8469 0.70788 91.2966 0.85019C91.656 0.964038 92.0161 1.07869 92.3673 1.21495C92.6614 1.329 92.9456 1.46989 93.2297 1.60817C93.4594 1.7202 93.6868 1.83849 93.9076 1.96727C94.3254 2.21071 94.7466 2.44992 95.1496 2.71617C95.5981 3.01249 96.0388 3.32336 96.4628 3.6536C96.805 3.91708 97.1285 4.20394 97.4311 4.5121C98.0219 5.12151 98.6212 5.72769 99.157 6.38413C99.6411 6.9782 100.073 7.62092 100.48 8.27211C100.872 8.89969 101.222 9.55613 101.554 10.2178C101.781 10.6682 101.958 11.1448 102.135 11.6181C102.349 12.1927 102.55 12.7727 102.736 13.3579C102.85 13.7046 102.942 14.0582 103.011 14.4165C103.132 15.0675 103.248 15.7211 103.325 16.3785C103.431 17.2982 103.499 18.2223 103.584 19.144L103.508 19.149ZM84.3094 29.6693L84.3209 29.731C84.7913 29.6172 85.2752 29.5413 85.7285 29.3794C86.1942 29.2133 86.6542 29.0017 87.0723 28.7391C87.4855 28.4797 87.8457 28.1335 88.2248 27.8219C88.8624 27.2956 89.4149 26.6852 89.9303 26.0433C90.3309 25.5439 90.7094 25.0251 91.0718 24.4971C91.2377 24.2548 91.3488 23.9749 91.467 23.7042C91.4894 23.6527 91.4468 23.5294 91.4 23.5037C91.3532 23.4781 91.2387 23.5082 91.1915 23.553C90.7695 23.9504 90.3787 24.3844 89.9341 24.7538C89.1634 25.3945 88.3869 26.0338 87.4885 26.4985C87.3037 26.594 87.1254 26.7003 86.9388 26.7938C86.6564 26.9351 86.382 27.1002 86.0863 27.2042C85.61 27.3734 85.1252 27.5177 84.6339 27.6366C83.7853 27.8384 82.9713 27.7468 82.227 27.2571C82.064 27.1499 82.0029 26.9607 82.0656 26.7764C82.2141 26.339 82.4769 25.9714 82.7918 25.6442C83.0349 25.3925 83.2878 25.1466 83.5616 24.9298C83.8453 24.703 84.1469 24.4996 84.4635 24.3214C84.7919 24.1398 85.1431 23.9961 85.4904 23.8505C85.8217 23.7116 86.1464 23.7106 86.4914 23.8618C86.7314 23.967 87.0098 23.9922 87.2743 24.0306C87.4286 24.0532 87.5609 23.9902 87.6456 23.8376C87.7303 23.685 87.8365 23.5465 87.928 23.3988C88.0953 23.1289 88.0848 22.8461 87.9766 22.56C87.833 22.1799 87.6642 21.8132 87.3917 21.5035C87.1675 21.2474 86.9099 21.0564 86.5509 21.1309C86.1025 21.2237 85.6599 21.3448 85.2121 21.4458C85.1346 21.4629 85.0166 21.4635 84.968 21.4179C84.6654 21.1333 84.3441 20.858 84.0925 20.5308C83.8785 20.2524 83.6816 19.9252 83.6011 19.5887C83.5039 19.1827 83.5089 18.7447 83.5204 18.322C83.537 17.7389 83.7532 17.2068 84.0114 16.687C84.2944 16.1191 84.6594 15.5961 85.0947 15.1347C85.49 14.7128 85.9161 14.3184 86.3453 13.93C86.6041 13.6956 86.8865 13.4859 87.1724 13.284C87.4951 13.0555 87.8316 12.844 88.1679 12.6343C88.3958 12.493 88.6222 12.3365 88.8697 12.2392C89.2946 12.0685 89.7299 11.9249 90.173 11.8093C90.4838 11.7303 90.813 11.7217 91.1352 11.6908C91.3054 11.6746 91.4265 11.7715 91.4194 11.9358C91.4029 12.3178 91.3942 12.7065 91.3127 13.0771C91.2429 13.3951 91.1041 13.7069 90.9466 13.9946C90.6912 14.4607 90.4346 14.9354 90.1066 15.3495C89.7363 15.817 89.3072 16.2449 88.8636 16.6454C88.5632 16.9167 88.2064 17.1343 87.8508 17.3317C87.6087 17.4665 87.3263 17.5301 87.0598 17.6179C86.9164 17.6652 86.8508 17.7647 86.8446 17.9044C86.8379 18.0566 86.941 18.125 87.0725 18.1412C87.226 18.1601 87.3828 18.1757 87.5365 18.1646C88.0206 18.1294 88.507 18.1002 88.959 17.8793C89.2543 17.735 89.5844 17.6557 89.8668 17.4924C90.2024 17.2982 90.5123 17.0548 90.8191 16.8156C91.5378 16.2566 92.0867 15.5465 92.5573 14.7768C92.8684 14.2691 93.0937 13.7137 93.2242 13.1327C93.3049 12.7719 93.335 12.4108 93.1929 12.0547C92.9543 11.4566 92.4992 11.0242 92.0339 10.6173C91.6415 10.2741 91.1925 9.99578 90.765 9.694C90.4052 9.44006 90.0001 9.37385 89.5686 9.41988C88.9087 9.48577 88.2685 9.68316 87.686 10.0004C87.1328 10.3032 86.5497 10.5656 86.0377 10.9267C85.4787 11.3218 84.9736 11.7974 84.4679 12.2624C83.8579 12.823 83.3474 13.475 82.9094 14.1748C82.5711 14.7193 82.2918 15.2984 82.0763 15.9021C81.8405 16.5548 81.6481 17.2096 81.5922 17.903C81.5393 18.5017 81.691 19.1006 82.0223 19.602C82.271 19.9843 82.5399 20.362 82.8523 20.692C83.1688 21.0261 83.5523 21.2962 83.9013 21.6004C83.9751 21.6648 84.0828 21.7663 84.0717 21.834C84.0554 21.9333 83.9578 22.0304 83.8736 22.1042C83.8057 22.1638 83.6975 22.1753 83.6227 22.2294C83.3016 22.4619 82.9772 22.6916 82.6708 22.943C82.4055 23.1608 82.1388 23.3856 81.9166 23.645C81.6091 24.0012 81.3268 24.3784 81.0717 24.7738C80.7714 25.2439 80.5723 25.7674 80.7258 26.3332C80.8216 26.6866 80.9854 27.0253 81.1494 27.3554C81.4388 27.9436 81.8321 28.4746 82.3103 28.9228C82.8761 29.4531 83.519 29.75 84.3094 29.6693Z" fill="#333333"/>
</svg>
