<svg width="64" height="76" viewBox="0 0 64 76" fill="none" xmlns="http://www.w3.org/2000/svg">
<path d="M-8.73135e-05 47.8465C-8.73135e-05 47.8465 5.00721 25.3732 9.66587 22.9469C14.3245 20.5206 42.5293 0 42.5293 0C42.5293 0 22.3493 22.6725 16.5387 27.1265C10.7301 31.5825 -8.73135e-05 47.8465 -8.73135e-05 47.8465Z" fill="#FF5946"/>
<path d="M1.28723e-06 47.8466L38.7331 16.4388L64 63.5167C64 63.5167 41.3673 51.5643 38.0012 40.6592C34.6352 29.7541 34.9185 27.6409 34.9185 27.6409C34.9185 27.6409 31.5586 38.4545 21.0262 41.7838C10.4937 45.1131 1.28723e-06 47.8466 1.28723e-06 47.8466Z" fill="#ED310B"/>
<path d="M-0.000225248 47.8465L25.1219 39.6361L34.166 76L19.2705 47.6226L-0.000225248 47.8465Z" fill="#ED310B"/>
<path d="M52.0424 47.7833C52.0668 47.7833 52.0933 47.7772 52.1158 47.765C52.1953 47.7244 52.2259 47.6269 52.1851 47.5476C47.9036 39.262 43.1471 31.1025 38.048 23.2948L37.9828 23.1931L37.8666 23.2277C31.4444 25.1476 26.3779 29.7947 21.4807 34.2893C17.5479 37.8972 13.4825 41.6271 8.70766 43.9781C8.62815 44.0168 8.59552 44.1145 8.63426 44.1938C8.673 44.2752 8.77086 44.3076 8.85037 44.2669C13.666 41.8955 17.7497 38.1494 21.6989 34.5272C26.5411 30.0855 31.5463 25.4931 37.8442 23.5733C42.9126 31.3402 47.6406 39.4571 51.8976 47.6959C51.9262 47.7529 51.9832 47.7833 52.0424 47.7833Z" fill="#FFFEFF"/>
<path d="M1.23112 45.713C1.31063 45.713 1.37995 45.6562 1.39015 45.5748C2.17916 40.0145 4.54417 35.6194 7.85111 30.7302C9.63302 28.0985 11.6514 25.1129 14.675 23.5306C14.7545 23.4899 14.783 23.3924 14.7423 23.3131C14.7015 23.2358 14.6016 23.2033 14.5241 23.246C11.4292 24.8669 9.38632 27.887 7.58402 30.5513C4.25262 35.4751 1.86927 39.9065 1.07209 45.5299C1.05986 45.6174 1.12103 45.6988 1.2087 45.7111C1.21685 45.7131 1.22297 45.713 1.23112 45.713Z" fill="#FFFEFF"/>
<path d="M26.7899 56.8542C26.8164 56.8542 26.8429 56.848 26.8674 56.8338C26.9449 56.7911 26.9734 56.6934 26.9326 56.6141C25.2119 53.474 24.2333 49.9557 23.3688 46.8542C23.1812 46.183 22.9692 45.4224 22.4819 44.8367C21.8927 44.1249 20.9039 43.6998 19.7724 43.6693C18.7795 43.6489 17.8049 43.8949 16.8691 44.139C16.7835 44.1614 16.7325 44.249 16.7529 44.3364C16.7753 44.4218 16.8609 44.4705 16.9507 44.4522C17.864 44.2122 18.7937 43.9682 19.7642 43.9926C20.804 44.0211 21.7031 44.4034 22.2352 45.0441C22.6777 45.5769 22.8713 46.2724 23.0589 46.9436C23.9274 50.0634 24.9122 53.5981 26.6513 56.7728C26.6778 56.8237 26.7328 56.8542 26.7899 56.8542Z" fill="#FFFEFF"/>
</svg>
