<svg width="220" height="46" viewBox="0 0 220 46" fill="none" xmlns="http://www.w3.org/2000/svg">
<path d="M20.8193 26.84C20.8193 29.7413 20.0827 31.8833 18.6093 33.266C17.136 34.6487 14.9373 35.34 12.0133 35.34C8.976 35.34 6.74333 34.6033 5.31533 33.13C3.91 31.6567 3.20733 29.3787 3.20733 26.296V10.214C3.20733 9.91933 3.32066 9.772 3.54733 9.772H5.38333C5.542 9.772 5.644 9.806 5.68933 9.874C5.75733 9.91933 5.79133 10.0213 5.79133 10.18V26.976C5.79133 31.1693 7.922 33.266 12.1833 33.266C16.49 33.266 18.6433 31.1353 18.6433 26.874V10.146C18.6433 9.89667 18.7567 9.772 18.9833 9.772H20.4793C20.706 9.772 20.8193 9.89667 20.8193 10.146V26.84ZM40.8472 35C40.5752 35 40.4392 34.864 40.4392 34.592V17.354C40.4392 17.1047 40.5525 16.98 40.7792 16.98H42.2412C42.4679 16.98 42.5812 17.0933 42.5812 17.32V19.326C42.5812 19.598 42.6832 19.632 42.8872 19.428C44.2472 18.4307 45.3692 17.7167 46.2532 17.286C47.1599 16.8553 48.1685 16.64 49.2792 16.64C51.0245 16.64 52.3732 17.1047 53.3252 18.034C54.2772 18.9407 54.7532 20.1647 54.7532 21.706V34.558C54.7532 34.8527 54.6172 35 54.3452 35H52.9172C52.6452 35 52.5092 34.864 52.5092 34.592V22.318C52.5092 19.7793 51.2512 18.51 48.7352 18.51C47.6925 18.51 46.7405 18.7253 45.8792 19.156C45.0405 19.5867 43.9752 20.3347 42.6832 21.4V34.592C42.6832 34.864 42.5359 35 42.2412 35H40.8472ZM117.981 34.49C117.981 34.694 117.947 34.83 117.879 34.898C117.811 34.966 117.675 35 117.471 35H116.179C116.021 35 115.907 34.9773 115.839 34.932C115.771 34.864 115.737 34.7507 115.737 34.592L115.771 10.18C115.771 10.0213 115.794 9.91933 115.839 9.874C115.885 9.806 115.975 9.772 116.111 9.772H117.641C117.868 9.772 117.981 9.908 117.981 10.18V34.49ZM138.464 27.01C138.464 28.166 138.747 29.254 139.314 30.274C139.88 31.2713 140.64 32.0647 141.592 32.654C142.566 33.2433 143.62 33.538 144.754 33.538C147.202 33.538 149.06 32.552 150.33 30.58C150.398 30.4667 150.466 30.41 150.534 30.41C150.602 30.3873 150.681 30.3987 150.772 30.444L151.928 31.09C151.996 31.1353 152.03 31.192 152.03 31.26C152.052 31.328 152.03 31.4073 151.962 31.498C151.123 32.8127 150.103 33.7873 148.902 34.422C147.7 35.034 146.272 35.34 144.618 35.34C142.963 35.34 141.49 34.9547 140.198 34.184C138.928 33.4133 137.931 32.3367 137.206 30.954C136.48 29.5487 136.118 27.9507 136.118 26.16C136.118 24.2333 136.48 22.556 137.206 21.128C137.954 19.6773 138.962 18.5667 140.232 17.796C141.524 17.0253 142.974 16.64 144.584 16.64C147.054 16.64 149.004 17.456 150.432 19.088C151.882 20.6973 152.608 22.93 152.608 25.786V25.99C152.608 26.1487 152.574 26.2733 152.506 26.364C152.46 26.4547 152.336 26.5 152.132 26.5H138.702C138.543 26.5 138.464 26.67 138.464 27.01ZM149.752 24.902C149.978 24.902 150.126 24.868 150.194 24.8C150.284 24.732 150.33 24.6073 150.33 24.426C150.33 23.338 150.092 22.3293 149.616 21.4C149.162 20.4707 148.505 19.734 147.644 19.19C146.782 18.646 145.774 18.374 144.618 18.374C143.348 18.374 142.249 18.6913 141.32 19.326C140.39 19.938 139.676 20.7427 139.178 21.74C138.702 22.7373 138.475 23.7913 138.498 24.902H149.752ZM181.103 32.722C180.196 33.606 179.233 34.2633 178.213 34.694C177.216 35.1247 176.116 35.34 174.915 35.34C173.124 35.34 171.719 34.898 170.699 34.014C169.679 33.13 169.169 31.9287 169.169 30.41C169.169 28.642 169.906 27.248 171.379 26.228C172.875 25.208 175.051 24.596 177.907 24.392L180.933 24.154C181.318 24.1087 181.511 23.9387 181.511 23.644V22.658C181.511 21.3433 181.092 20.3007 180.253 19.53C179.437 18.7593 178.326 18.374 176.921 18.374C174.836 18.374 173.102 19.3373 171.719 21.264C171.651 21.3773 171.583 21.4453 171.515 21.468C171.447 21.4907 171.368 21.4793 171.277 21.434L169.883 20.856C169.792 20.8107 169.747 20.754 169.747 20.686C169.747 20.5953 169.781 20.5047 169.849 20.414C170.552 19.2353 171.515 18.3173 172.739 17.66C173.963 16.98 175.391 16.64 177.023 16.64C179.131 16.64 180.763 17.1613 181.919 18.204C183.098 19.224 183.687 20.652 183.687 22.488V34.558C183.687 34.8527 183.551 35 183.279 35H182.021C181.749 35 181.613 34.8527 181.613 34.558L181.545 32.79C181.5 32.6313 181.443 32.552 181.375 32.552C181.307 32.552 181.216 32.6087 181.103 32.722ZM181.511 26.194C181.511 25.8087 181.341 25.6387 181.001 25.684L178.451 25.888C173.782 26.228 171.447 27.656 171.447 30.172C171.447 31.2147 171.821 32.042 172.569 32.654C173.317 33.266 174.314 33.572 175.561 33.572C176.309 33.572 177.046 33.436 177.771 33.164C178.496 32.892 179.154 32.5293 179.743 32.076C180.922 31.1013 181.511 30.138 181.511 29.186V26.194ZM204.391 16.98C204.663 16.98 204.799 17.1273 204.799 17.422V18.986C204.799 19.19 204.845 19.292 204.935 19.292C205.026 19.292 205.128 19.2353 205.241 19.122C205.309 19.054 205.559 18.7933 205.989 18.34C206.443 17.8867 207.077 17.49 207.893 17.15C208.732 16.81 209.65 16.64 210.647 16.64C212.098 16.64 213.39 16.98 214.523 17.66C215.679 18.34 216.586 19.36 217.243 20.72C217.901 22.08 218.229 23.7347 218.229 25.684C218.229 27.6333 217.901 29.3447 217.243 30.818C216.586 32.2687 215.657 33.3907 214.455 34.184C213.254 34.9547 211.86 35.34 210.273 35.34C209.253 35.34 208.324 35.1813 207.485 34.864C206.669 34.5467 205.967 34.1387 205.377 33.64C205.196 33.504 205.071 33.436 205.003 33.436C204.913 33.436 204.867 33.5833 204.867 33.878V40.202C204.867 40.474 204.743 40.61 204.493 40.61H202.963C202.737 40.61 202.623 40.4853 202.623 40.236V17.456C202.623 17.2747 202.657 17.15 202.725 17.082C202.793 17.014 202.918 16.98 203.099 16.98H204.391ZM204.867 31.192C205.661 31.9853 206.454 32.586 207.247 32.994C208.041 33.402 208.891 33.606 209.797 33.606C211.633 33.606 213.107 32.926 214.217 31.566C215.351 30.1833 215.917 28.2567 215.917 25.786C215.917 23.338 215.351 21.4907 214.217 20.244C213.107 18.9973 211.713 18.374 210.035 18.374C209.061 18.374 208.177 18.5893 207.383 19.02C206.613 19.4507 206.001 20.006 205.547 20.686C205.094 21.3433 204.867 21.9893 204.867 22.624V31.192Z" fill="white"/>
<path d="M101.924 19.0506C102.019 20.2313 101.803 21.3892 101.664 22.5505C101.599 23.0979 101.434 23.6338 101.305 24.1728C101.206 24.5862 101.1 24.9986 100.981 25.4068C100.892 25.711 100.782 26.0093 100.671 26.3064C100.543 26.6476 100.415 26.9893 100.267 27.3218C100.084 27.7344 99.8898 28.1418 99.684 28.544C99.5065 28.8924 99.3135 29.2336 99.1168 29.5717C98.9306 29.8922 98.7475 30.2164 98.5334 30.5182C98.1625 31.0408 97.7931 31.5679 97.3784 32.0552C96.9144 32.6002 96.4111 33.1125 95.9058 33.6196C95.5782 33.9482 95.224 34.2522 94.8659 34.5481C94.5761 34.7875 94.2664 35.0037 93.9582 35.2201C93.6286 35.4518 93.2925 35.6755 92.9552 35.8957C92.7824 36.0123 92.6023 36.1178 92.416 36.2114C91.968 36.4282 91.5152 36.6353 91.0613 36.8396C90.742 36.9833 90.422 37.1272 90.0948 37.2508C89.7928 37.3677 89.4841 37.4664 89.1704 37.5465C88.6459 37.6751 88.1172 37.7877 87.587 37.8897C86.496 38.1003 85.3832 38.1758 84.2738 38.1145C83.3138 38.0623 82.3633 37.9355 81.4321 37.6846C80.9765 37.5618 80.5151 37.4563 80.0657 37.3138C79.7201 37.2042 79.3871 37.0534 79.052 36.9121C78.7916 36.8023 78.5334 36.6862 78.2807 36.56C77.9751 36.4072 77.6723 36.2477 77.3753 36.0786C77.0122 35.8727 76.6524 35.6634 76.3028 35.4373C76.0038 35.2437 75.7122 35.036 75.4338 34.8135C75.0549 34.5108 74.6773 34.2035 74.3243 33.8705C73.8545 33.4264 73.3922 32.971 72.9597 32.4906C72.5614 32.0494 72.1888 31.5857 71.8438 31.1018C71.4619 30.564 71.1105 30.0023 70.776 29.4334C70.4757 28.9229 70.1983 28.3969 69.9444 27.8618C69.7251 27.3999 69.5484 26.9173 69.361 26.4405C69.2327 26.1139 69.1123 25.7842 68.9999 25.4514C68.899 25.1508 68.7982 24.8486 68.7256 24.5402C68.6075 24.0335 68.5313 23.5168 68.4058 23.0121C68.1803 22.1054 68.1541 21.1752 68.0613 20.2541C67.9604 19.2545 67.9875 18.2519 68.1174 17.2541C68.2231 16.443 68.3134 15.6289 68.4502 14.8229C68.5382 14.305 68.6923 13.7975 68.828 13.2888C68.9277 12.9174 69.04 12.5488 69.1603 12.1834C69.2593 11.8821 69.3719 11.5847 69.4897 11.2902C69.6024 11.0086 69.7227 10.7296 69.8528 10.4555C70.0603 10.0175 70.2651 9.57724 70.4967 9.15172C70.7315 8.71995 70.976 8.2904 71.2543 7.88628C71.7015 7.2367 72.1536 6.58671 72.6537 5.97811C73.1117 5.41735 73.6081 4.88916 74.1393 4.39736C74.7076 3.87515 75.3295 3.41108 75.9411 2.93671C76.2535 2.6927 76.5804 2.46795 76.9201 2.26372C77.312 2.02936 77.7229 1.82629 78.1292 1.61636C78.4037 1.47506 78.6817 1.3382 78.9633 1.21062C79.2205 1.09395 79.4793 0.976469 79.7468 0.887651C80.1365 0.757856 80.5315 0.640779 80.9299 0.541061C81.4009 0.422974 81.8796 0.335771 82.352 0.223336C83.5659 -0.0659269 84.7985 0.0051275 86.0296 0.0142111C86.8227 0.020065 87.5842 0.223538 88.3564 0.35192C88.818 0.428828 89.2629 0.609491 89.7126 0.751801C90.072 0.865649 90.4321 0.980304 90.7833 1.11656C91.0774 1.23061 91.3616 1.37151 91.6457 1.50978C91.8754 1.62181 92.1028 1.7401 92.3237 1.86888C92.7414 2.11232 93.1626 2.35153 93.5656 2.61778C94.0141 2.91411 94.4548 3.22497 94.8789 3.55521C95.221 3.8187 95.5445 4.10555 95.8471 4.41371C96.438 5.02312 97.0373 5.6293 97.573 6.28574C98.0572 6.87981 98.4888 7.52253 98.8957 8.17372C99.2881 8.8013 99.6376 9.45774 99.9703 10.1194C100.197 10.5698 100.374 11.0464 100.551 11.5197C100.765 12.0943 100.966 12.6743 101.152 13.2595C101.266 13.6062 101.358 13.9598 101.427 14.3181C101.548 14.9691 101.664 15.6227 101.741 16.2801C101.847 17.1998 101.915 18.1239 102 19.0456L101.924 19.0506ZM82.7254 29.5709L82.7369 29.6327C83.2073 29.5188 83.6912 29.4429 84.1445 29.281C84.6103 29.1149 85.0702 28.9033 85.4883 28.6407C85.9015 28.3813 86.2617 28.0352 86.6408 27.7235C87.2784 27.1972 87.8309 26.5868 88.3463 25.9449C88.7469 25.4455 89.1254 24.9267 89.4879 24.3987C89.6537 24.1564 89.7648 23.8765 89.883 23.6058C89.9054 23.5543 89.8629 23.431 89.8161 23.4053C89.7693 23.3797 89.6547 23.4098 89.6075 23.4546C89.1855 23.852 88.7948 24.286 88.3502 24.6554C87.5794 25.2961 86.803 25.9354 85.9045 26.4001C85.7197 26.4956 85.5414 26.602 85.3548 26.6954C85.0724 26.8367 84.7981 27.0018 84.5023 27.1058C84.026 27.275 83.5412 27.4193 83.0499 27.5382C82.2013 27.74 81.3874 27.6484 80.643 27.1587C80.48 27.0515 80.4189 26.8624 80.4816 26.6781C80.6301 26.2406 80.8929 25.873 81.2078 25.5458C81.4509 25.2941 81.7039 25.0483 81.9776 24.8315C82.2613 24.6046 82.563 24.4012 82.8795 24.2231C83.2079 24.0414 83.5591 23.8977 83.9065 23.7521C84.2377 23.6132 84.5625 23.6122 84.9074 23.7634C85.1474 23.8686 85.4258 23.8938 85.6903 23.9322C85.8446 23.9548 85.9769 23.8918 86.0616 23.7392C86.1464 23.5866 86.2525 23.4481 86.344 23.3004C86.5113 23.0305 86.5008 22.7477 86.3927 22.4616C86.249 22.0815 86.0802 21.7148 85.8077 21.4051C85.5836 21.149 85.326 20.958 84.9669 21.0325C84.5185 21.1253 84.0759 21.2465 83.6281 21.3474C83.5506 21.3645 83.4326 21.3652 83.384 21.3195C83.0814 21.0349 82.7601 20.7596 82.5085 20.4324C82.2945 20.154 82.0976 19.8268 82.0171 19.4903C81.9199 19.0844 81.925 18.6463 81.9364 18.2236C81.953 17.6405 82.1692 17.1084 82.4274 16.5886C82.7104 16.0207 83.0754 15.4977 83.5107 15.0363C83.9061 14.6144 84.3321 14.22 84.7613 13.8316C85.0202 13.5972 85.3026 13.3875 85.5884 13.1857C85.9112 12.9572 86.2476 12.7456 86.5839 12.5359C86.8118 12.3946 87.0382 12.2381 87.2857 12.1408C87.7106 11.9701 88.1459 11.8265 88.589 11.7109C88.8999 11.632 89.2291 11.6233 89.5512 11.5924C89.7215 11.5762 89.8425 11.6731 89.8354 11.8374C89.8189 12.2194 89.8102 12.6081 89.7287 12.9788C89.6589 13.2967 89.5201 13.6086 89.3626 13.8962C89.1072 14.3623 88.8506 14.8371 88.5226 15.2511C88.1523 15.7186 87.7232 16.1465 87.2796 16.547C86.9793 16.8183 86.6224 17.0359 86.2668 17.2333C86.0247 17.3682 85.7423 17.4317 85.4758 17.5196C85.3324 17.5668 85.2669 17.6663 85.2606 17.806C85.2539 17.9582 85.357 18.0266 85.4885 18.0428C85.6421 18.0617 85.7988 18.0773 85.9525 18.0662C86.4366 18.0311 86.923 18.0018 87.375 17.781C87.6704 17.6366 88.0004 17.5573 88.2828 17.394C88.6184 17.1998 88.9283 16.9564 89.2351 16.7172C89.9538 16.1582 90.5027 15.4481 90.9733 14.6784C91.2844 14.1708 91.5097 13.6153 91.6402 13.0343C91.7209 12.6735 91.751 12.3124 91.609 11.9563C91.3703 11.3582 90.9152 10.9259 90.4499 10.5189C90.0575 10.1757 89.6085 9.89739 89.181 9.59561C88.8212 9.34167 88.4161 9.27546 87.9846 9.32149C87.3247 9.38738 86.6845 9.58477 86.102 9.90203C85.5489 10.2048 84.9657 10.4672 84.4537 10.8284C83.8948 11.2234 83.3896 11.699 82.8839 12.1641C82.2739 12.7246 81.7634 13.3766 81.3254 14.0765C80.9871 14.6209 80.7078 15.2 80.4923 15.8038C80.2565 16.4564 80.0641 17.1112 80.0082 17.8046C79.9554 18.4033 80.107 19.0023 80.4383 19.5036C80.687 19.8859 80.9559 20.2636 81.2683 20.5937C81.5848 20.9277 81.9683 21.1978 82.3173 21.502C82.3911 21.5664 82.4988 21.6679 82.4878 21.7356C82.4714 21.8349 82.3738 21.932 82.2897 22.0058C82.2217 22.0654 82.1136 22.0769 82.0387 22.131C81.7176 22.3635 81.3932 22.5933 81.0868 22.8446C80.8215 23.0624 80.5549 23.2872 80.3326 23.5466C80.0251 23.9028 79.7429 24.28 79.4878 24.6754C79.1874 25.1456 78.9883 25.669 79.1418 26.2348C79.2376 26.5882 79.4014 26.927 79.5654 27.257C79.8549 27.8452 80.2482 28.3762 80.7263 28.8244C81.2922 29.3547 81.935 29.6516 82.7254 29.5709Z" fill="white"/>
</svg>
