<svg width="157" height="46" viewBox="0 0 157 46" fill="none" xmlns="http://www.w3.org/2000/svg">
<path d="M15.6076 25.856C15.6076 28.08 15.0476 29.704 13.9276 30.728C12.8076 31.736 11.1516 32.24 8.95963 32.24C6.63963 32.24 4.95163 31.688 3.89563 30.584C2.83963 29.464 2.31163 27.752 2.31163 25.448V14.576C2.31163 14.32 2.41563 14.192 2.62363 14.192H4.90363C5.11163 14.192 5.21563 14.312 5.21563 14.552V25.952C5.21563 28.704 6.53563 30.08 9.17563 30.08C11.8636 30.08 13.2076 28.68 13.2076 25.88V14.552C13.2076 14.312 13.3036 14.192 13.4956 14.192H15.3196C15.5116 14.192 15.6076 14.304 15.6076 14.528V25.856ZM29.189 32C28.933 32 28.805 31.872 28.805 31.616V19.64C28.805 19.4 28.909 19.28 29.117 19.28H31.013C31.205 19.28 31.301 19.384 31.301 19.592V20.912C31.301 21.008 31.317 21.064 31.349 21.08C31.397 21.096 31.461 21.064 31.541 20.984C32.373 20.312 33.109 19.824 33.749 19.52C34.389 19.2 35.085 19.04 35.837 19.04C37.037 19.04 37.973 19.376 38.645 20.048C39.333 20.704 39.677 21.592 39.677 22.712V31.568C39.677 31.856 39.541 32 39.269 32H37.493C37.253 32 37.133 31.872 37.133 31.616V23.216C37.133 22.496 36.941 21.944 36.557 21.56C36.189 21.16 35.629 20.96 34.877 20.96C34.269 20.96 33.701 21.104 33.173 21.392C32.661 21.664 32.053 22.12 31.349 22.76V31.592C31.349 31.736 31.309 31.84 31.229 31.904C31.165 31.968 31.053 32 30.893 32H29.189ZM84.4543 31.544C84.4543 31.72 84.4143 31.84 84.3343 31.904C84.2703 31.968 84.1423 32 83.9503 32H82.3183C82.1583 32 82.0463 31.976 81.9823 31.928C81.9183 31.864 81.8863 31.76 81.8863 31.616L81.9343 14.552C81.9343 14.312 82.0383 14.192 82.2463 14.192H84.1423C84.3503 14.192 84.4543 14.312 84.4543 14.552V31.544ZM99.3834 26.528C99.3834 27.248 99.5514 27.904 99.8874 28.496C100.239 29.072 100.711 29.536 101.303 29.888C101.895 30.224 102.543 30.392 103.247 30.392C103.983 30.392 104.639 30.24 105.215 29.936C105.791 29.632 106.319 29.16 106.799 28.52C106.847 28.456 106.903 28.424 106.967 28.424C107.047 28.424 107.111 28.44 107.159 28.472L108.383 29.048C108.463 29.096 108.503 29.16 108.503 29.24C108.503 29.288 108.479 29.352 108.431 29.432C107.759 30.424 106.991 31.144 106.127 31.592C105.263 32.024 104.215 32.24 102.983 32.24C101.783 32.24 100.711 31.968 99.7674 31.424C98.8234 30.88 98.0874 30.12 97.5594 29.144C97.0314 28.152 96.7674 27.032 96.7674 25.784C96.7674 24.44 97.0394 23.256 97.5834 22.232C98.1274 21.208 98.8634 20.424 99.7914 19.88C100.735 19.32 101.783 19.04 102.935 19.04C104.119 19.04 105.159 19.304 106.055 19.832C106.951 20.344 107.639 21.096 108.119 22.088C108.615 23.08 108.863 24.256 108.863 25.616V25.712C108.863 25.856 108.839 25.968 108.791 26.048C108.759 26.112 108.663 26.144 108.503 26.144H99.6234C99.4634 26.144 99.3834 26.272 99.3834 26.528ZM105.935 24.632C106.095 24.632 106.199 24.608 106.247 24.56C106.311 24.512 106.343 24.424 106.343 24.296C106.343 23.672 106.207 23.088 105.935 22.544C105.679 22 105.295 21.568 104.783 21.248C104.287 20.912 103.695 20.744 103.007 20.744C102.287 20.744 101.655 20.928 101.111 21.296C100.567 21.648 100.143 22.12 99.8394 22.712C99.5514 23.288 99.4154 23.92 99.4314 24.608L105.935 24.632ZM128.28 30.56C127.112 31.68 125.744 32.24 124.176 32.24C122.944 32.24 121.968 31.928 121.248 31.304C120.544 30.664 120.192 29.816 120.192 28.76C120.192 27.464 120.752 26.432 121.872 25.664C123.008 24.896 124.616 24.464 126.696 24.368L128.256 24.248C128.512 24.216 128.64 24.096 128.64 23.888V23.288C128.64 22.504 128.4 21.888 127.92 21.44C127.44 20.976 126.784 20.744 125.952 20.744C124.64 20.744 123.592 21.336 122.808 22.52C122.76 22.616 122.704 22.68 122.64 22.712C122.592 22.728 122.512 22.72 122.4 22.688L120.768 22.208C120.672 22.176 120.624 22.112 120.624 22.016C120.624 21.952 120.648 21.864 120.696 21.752C121.144 20.888 121.824 20.224 122.736 19.76C123.664 19.28 124.776 19.04 126.072 19.04C127.752 19.04 129.008 19.4 129.84 20.12C130.672 20.84 131.088 21.84 131.088 23.12V31.592C131.088 31.752 131.056 31.864 130.992 31.928C130.944 31.976 130.856 32 130.728 32H129.12C128.896 32 128.768 31.84 128.736 31.52L128.688 30.608C128.656 30.48 128.608 30.416 128.544 30.416C128.496 30.416 128.408 30.464 128.28 30.56ZM128.64 26.024C128.64 25.768 128.528 25.648 128.304 25.664L127.008 25.76C125.68 25.84 124.624 26.112 123.84 26.576C123.072 27.024 122.688 27.648 122.688 28.448C122.688 29.072 122.912 29.568 123.36 29.936C123.808 30.288 124.408 30.464 125.16 30.464C126.024 30.464 126.84 30.168 127.608 29.576C128.296 29.016 128.64 28.456 128.64 27.896V26.024ZM145.986 19.28C146.258 19.28 146.394 19.408 146.394 19.664V20.6C146.394 20.728 146.426 20.792 146.49 20.792C146.522 20.792 146.594 20.752 146.706 20.672C147.186 20.192 147.69 19.8 148.218 19.496C148.762 19.192 149.482 19.04 150.378 19.04C151.37 19.04 152.25 19.28 153.018 19.76C153.802 20.24 154.418 20.96 154.866 21.92C155.314 22.88 155.538 24.064 155.538 25.472C155.538 26.912 155.314 28.144 154.866 29.168C154.418 30.176 153.786 30.944 152.97 31.472C152.154 31.984 151.21 32.24 150.138 32.24C148.842 32.24 147.73 31.84 146.802 31.04C146.674 30.928 146.578 30.872 146.514 30.872C146.434 30.872 146.394 30.976 146.394 31.184V35.624C146.394 35.848 146.298 35.96 146.106 35.96H144.162C143.954 35.96 143.85 35.848 143.85 35.624V19.712C143.85 19.552 143.882 19.44 143.946 19.376C144.026 19.312 144.146 19.28 144.306 19.28H145.986ZM146.394 29.048C146.858 29.528 147.322 29.896 147.786 30.152C148.266 30.392 148.786 30.512 149.346 30.512C150.45 30.512 151.322 30.088 151.962 29.24C152.618 28.376 152.946 27.12 152.946 25.472C152.946 23.872 152.626 22.688 151.986 21.92C151.346 21.152 150.506 20.768 149.466 20.768C148.89 20.768 148.362 20.896 147.882 21.152C147.418 21.392 147.05 21.712 146.778 22.112C146.522 22.496 146.394 22.88 146.394 23.264V29.048Z" fill="#333333"/>
<path d="M73.9394 22.9864C74.0154 23.924 73.8433 24.8434 73.7331 25.7656C73.6814 26.2004 73.5505 26.626 73.4478 27.054C73.3692 27.3823 73.2854 27.7097 73.1906 28.0339C73.1199 28.2754 73.0324 28.5124 72.9443 28.7483C72.8431 29.0192 72.7415 29.2906 72.624 29.5546C72.4786 29.8823 72.3243 30.2058 72.1609 30.5252C72.0199 30.8019 71.8666 31.0728 71.7104 31.3413C71.5625 31.5959 71.4171 31.8533 71.2471 32.093C70.9525 32.508 70.6592 32.9265 70.3299 33.3135C69.9614 33.7463 69.5618 34.1531 69.1605 34.5558C68.9003 34.8168 68.6191 35.0582 68.3347 35.2932C68.1045 35.4833 67.8586 35.655 67.6139 35.8268C67.3521 36.0108 67.0852 36.1884 66.8174 36.3633C66.6802 36.4559 66.5371 36.5397 66.3892 36.614C66.0334 36.7862 65.6738 36.9507 65.3134 37.1129C65.0598 37.227 64.8057 37.3413 64.5459 37.4394C64.3061 37.5323 64.0609 37.6107 63.8118 37.6743C63.3953 37.7764 62.9754 37.8658 62.5544 37.9468C61.688 38.114 60.8043 38.174 59.9233 38.1253C59.161 38.0838 58.4061 37.9832 57.6667 37.7839C57.3048 37.6864 56.9385 37.6026 56.5816 37.4894C56.3072 37.4024 56.0427 37.2827 55.7766 37.1704C55.5698 37.0832 55.3648 36.9911 55.1641 36.8909C54.9214 36.7695 54.6809 36.6429 54.4451 36.5086C54.1568 36.3451 53.871 36.1788 53.5934 35.9993C53.356 35.8456 53.1244 35.6806 52.9033 35.504C52.6025 35.2635 52.3026 35.0195 52.0222 34.7551C51.6492 34.4024 51.282 34.0408 50.9386 33.6592C50.6223 33.3089 50.3264 32.9407 50.0524 32.5564C49.7492 32.1294 49.4701 31.6832 49.2045 31.2315C48.966 30.8261 48.7457 30.4084 48.544 29.9834C48.3699 29.6167 48.2296 29.2334 48.0808 28.8548C47.9789 28.5954 47.8833 28.3336 47.794 28.0693C47.7139 27.8306 47.6338 27.5906 47.5762 27.3457C47.4825 26.9434 47.4219 26.533 47.3223 26.1322C47.1432 25.4122 47.1224 24.6735 47.0487 23.9421C46.9686 23.1483 46.99 22.3521 47.0932 21.5597C47.1771 20.9156 47.2489 20.2691 47.3575 19.6291C47.4274 19.2177 47.5497 18.8147 47.6576 18.4108C47.7367 18.1158 47.8259 17.8231 47.9214 17.533C48 17.2937 48.0894 17.0575 48.183 16.8237C48.2725 16.6 48.368 16.3785 48.4713 16.1608C48.6362 15.813 48.7987 15.4634 48.9826 15.1255C49.1691 14.7826 49.3633 14.4415 49.5843 14.1205C49.9395 13.6047 50.2984 13.0885 50.6956 12.6052C51.0593 12.1599 51.4535 11.7405 51.8754 11.3499C52.3266 10.9352 52.8205 10.5667 53.3062 10.19C53.5542 9.99623 53.8138 9.81776 54.0836 9.65557C54.3948 9.46946 54.7211 9.3082 55.0438 9.14149C55.2618 9.02928 55.4825 8.9206 55.7061 8.81929C55.9104 8.72664 56.1159 8.63334 56.3283 8.56281C56.6378 8.45974 56.9515 8.36676 57.2678 8.28758C57.6419 8.1938 58.022 8.12455 58.3972 8.03527C59.3612 7.80556 60.34 7.86198 61.3176 7.8692C61.9475 7.87384 62.5522 8.03543 63.1654 8.13738C63.5319 8.19845 63.8853 8.34192 64.2423 8.45493C64.5278 8.54534 64.8137 8.63639 65.0926 8.74459C65.3262 8.83516 65.5519 8.94705 65.7774 9.05685C65.9599 9.14582 66.1404 9.23975 66.3158 9.34202C66.6476 9.53534 66.9821 9.7253 67.3021 9.93673C67.6582 10.1721 68.0083 10.4189 68.345 10.6812C68.6167 10.8904 68.8736 11.1182 69.1139 11.3629C69.5831 11.8469 70.059 12.3282 70.4845 12.8495C70.8689 13.3213 71.2117 13.8317 71.5348 14.3488C71.8464 14.8472 72.124 15.3685 72.3882 15.8939C72.5681 16.2516 72.7085 16.63 72.8494 17.0059C73.0195 17.4622 73.1786 17.9228 73.3267 18.3875C73.4171 18.6629 73.4901 18.9436 73.5451 19.2282C73.6412 19.7451 73.7334 20.2642 73.794 20.7863C73.8787 21.5166 73.9329 22.2504 74 22.9824L73.9394 22.9864ZM58.6937 31.3407L58.7028 31.3897C59.0764 31.2993 59.4607 31.2391 59.8206 31.1105C60.1905 30.9786 60.5557 30.8106 60.8878 30.602C61.2159 30.396 61.502 30.1211 61.803 29.8736C62.3093 29.4557 62.7481 28.971 63.1574 28.4612C63.4755 28.0646 63.776 27.6527 64.0639 27.2333C64.1956 27.041 64.2838 26.8186 64.3777 26.6037C64.3955 26.5628 64.3617 26.4649 64.3245 26.4445C64.2874 26.4241 64.1964 26.448 64.1589 26.4836C63.8238 26.7992 63.5135 27.1439 63.1604 27.4372C62.5483 27.946 61.9318 28.4537 61.2183 28.8227C61.0715 28.8985 60.9299 28.983 60.7818 29.0572C60.5575 29.1694 60.3396 29.3006 60.1048 29.3831C59.7265 29.5174 59.3416 29.6321 58.9514 29.7265C58.2775 29.8868 57.6311 29.814 57.04 29.4251C56.9106 29.34 56.8621 29.1898 56.9119 29.0434C57.0298 28.6961 57.2385 28.4042 57.4886 28.1443C57.6816 27.9444 57.8825 27.7492 58.0999 27.577C58.3252 27.3969 58.5647 27.2353 58.8161 27.0939C59.0769 26.9496 59.3557 26.8355 59.6316 26.7199C59.8946 26.6096 60.1525 26.6088 60.4265 26.7289C60.6171 26.8124 60.8381 26.8324 61.0482 26.8629C61.1707 26.8808 61.2758 26.8308 61.3431 26.7096C61.4103 26.5885 61.4946 26.4785 61.5673 26.3611C61.7001 26.1468 61.6918 25.9222 61.6059 25.6951C61.4919 25.3933 61.3578 25.102 61.1414 24.8561C60.9634 24.6527 60.7589 24.501 60.4737 24.5602C60.1176 24.6339 59.7662 24.7301 59.4105 24.8103C59.349 24.8239 59.2553 24.8244 59.2167 24.7881C58.9764 24.5621 58.7212 24.3435 58.5215 24.0836C58.3515 23.8626 58.1952 23.6027 58.1313 23.3355C58.054 23.0131 58.058 22.6653 58.0672 22.3296C58.0803 21.8665 58.252 21.444 58.4571 21.0312C58.6818 20.5803 58.9716 20.1649 59.3173 19.7985C59.6313 19.4635 59.9696 19.1502 60.3105 18.8418C60.516 18.6557 60.7403 18.4892 60.9673 18.3289C61.2236 18.1474 61.4908 17.9794 61.7578 17.8129C61.9388 17.7007 62.1185 17.5764 62.3151 17.4992C62.6525 17.3636 62.9982 17.2496 63.3501 17.1577C63.5969 17.0951 63.8584 17.0882 64.1142 17.0636C64.2494 17.0508 64.3455 17.1278 64.3399 17.2582C64.3268 17.5615 64.3199 17.8703 64.2552 18.1646C64.1997 18.417 64.0895 18.6647 63.9644 18.8931C63.7616 19.2633 63.5579 19.6403 63.2974 19.9691C63.0033 20.3403 62.6626 20.6801 62.3103 20.9982C62.0718 21.2136 61.7884 21.3864 61.506 21.5432C61.3138 21.6503 61.0895 21.7008 60.8779 21.7705C60.764 21.808 60.7119 21.887 60.707 21.998C60.7017 22.1188 60.7835 22.1732 60.888 22.186C61.0099 22.2011 61.1343 22.2134 61.2564 22.2046C61.6409 22.1767 62.0271 22.1535 62.3861 21.9781C62.6206 21.8635 62.8827 21.8005 63.1069 21.6708C63.3735 21.5166 63.6195 21.3233 63.8632 21.1333C64.4339 20.6894 64.8698 20.1255 65.2435 19.5143C65.4906 19.1112 65.6695 18.67 65.7731 18.2087C65.8372 17.9222 65.8611 17.6354 65.7483 17.3527C65.5588 16.8777 65.1974 16.5343 64.8278 16.2112C64.5163 15.9387 64.1597 15.7176 63.8202 15.478C63.5345 15.2763 63.2128 15.2237 62.8702 15.2603C62.3461 15.3126 61.8377 15.4693 61.3751 15.7213C60.9359 15.9617 60.4728 16.1701 60.0662 16.4569C59.6223 16.7706 59.2212 17.1483 58.8196 17.5176C58.3352 17.9628 57.9297 18.4805 57.582 19.0363C57.3133 19.4686 57.0915 19.9285 56.9204 20.408C56.7331 20.9262 56.5803 21.4462 56.5359 21.9968C56.494 22.4723 56.6144 22.9479 56.8774 23.3461C57.075 23.6497 57.2885 23.9496 57.5366 24.2117C57.788 24.477 58.0925 24.6915 58.3696 24.933C58.4282 24.9842 58.5138 25.0648 58.505 25.1185C58.492 25.1974 58.4145 25.2745 58.3477 25.3331C58.2937 25.3804 58.2078 25.3896 58.1484 25.4325C57.8934 25.6172 57.6358 25.7996 57.3925 25.9992C57.1818 26.1722 56.97 26.3507 56.7935 26.5567C56.5494 26.8396 56.3252 27.1391 56.1226 27.4531C55.8841 27.8264 55.726 28.2421 55.8479 28.6914C55.924 28.9721 56.0541 29.2411 56.1843 29.5032C56.4142 29.9703 56.7265 30.392 57.1062 30.7479C57.5555 31.169 58.0661 31.4048 58.6937 31.3407Z" fill="#333333"/>
</svg>
