<svg width="27" height="32" viewBox="0 0 27 32" fill="none" xmlns="http://www.w3.org/2000/svg">
<path d="M26.9394 15.9864C27.0154 16.924 26.8433 17.8434 26.7331 18.7656C26.6814 19.2004 26.5505 19.626 26.4478 20.054C26.3692 20.3823 26.2854 20.7097 26.1906 21.0339C26.1199 21.2754 26.0324 21.5124 25.9443 21.7483C25.8431 22.0192 25.7415 22.2906 25.624 22.5546C25.4786 22.8823 25.3243 23.2058 25.1609 23.5252C25.0199 23.8019 24.8666 24.0728 24.7104 24.3413C24.5625 24.5959 24.4171 24.8533 24.2471 25.093C23.9525 25.508 23.6592 25.9265 23.3299 26.3135C22.9614 26.7463 22.5618 27.1531 22.1605 27.5558C21.9003 27.8168 21.6191 28.0582 21.3347 28.2932C21.1045 28.4833 20.8586 28.655 20.6139 28.8268C20.3521 29.0108 20.0852 29.1884 19.8174 29.3633C19.6802 29.4559 19.5371 29.5397 19.3892 29.614C19.0334 29.7862 18.6738 29.9507 18.3134 30.1129C18.0598 30.227 17.8057 30.3413 17.5459 30.4394C17.3061 30.5323 17.0609 30.6107 16.8118 30.6743C16.3953 30.7764 15.9754 30.8658 15.5544 30.9468C14.688 31.114 13.8043 31.174 12.9233 31.1253C12.161 31.0838 11.4061 30.9832 10.6667 30.7839C10.3048 30.6864 9.93848 30.6026 9.58158 30.4894C9.30717 30.4024 9.0427 30.2827 8.77662 30.1704C8.56982 30.0832 8.36477 29.9911 8.16406 29.8909C7.92137 29.7695 7.68092 29.6429 7.44512 29.5086C7.15678 29.3451 6.871 29.1788 6.59339 28.9993C6.35599 28.8456 6.12436 28.6806 5.90329 28.504C5.60246 28.2635 5.30258 28.0195 5.02225 27.7551C4.64917 27.4024 4.28201 27.0408 3.93856 26.6592C3.62228 26.3089 3.3264 25.9407 3.05239 25.5564C2.74915 25.1294 2.4701 24.6832 2.20451 24.2315C1.96598 23.8261 1.74572 23.4084 1.54404 22.9834C1.36992 22.6167 1.22959 22.2334 1.08077 21.8548C0.978893 21.5954 0.883313 21.3336 0.794034 21.0693C0.713939 20.8306 0.633844 20.5906 0.576176 20.3457C0.482464 19.9434 0.421912 19.533 0.322274 19.1322C0.143181 18.4122 0.122356 17.6735 0.048669 16.9421C-0.0314261 16.1483 -0.00996013 15.3521 0.0932022 14.5597C0.177142 13.9156 0.248907 13.2691 0.357516 12.6291C0.427359 12.2177 0.549743 11.8147 0.657551 11.4108C0.736685 11.1158 0.825912 10.8231 0.921385 10.533C1.00004 10.2937 1.08942 10.0575 1.18297 9.82367C1.27252 9.60005 1.36799 9.37852 1.47132 9.16083C1.63615 8.81298 1.79875 8.46337 1.98264 8.12546C2.1691 7.78258 2.36326 7.44146 2.58432 7.12054C2.93946 6.6047 3.29844 6.08854 3.69556 5.60523C4.05925 5.15993 4.45347 4.74048 4.87535 4.34993C5.32661 3.93524 5.82048 3.56671 6.30617 3.19001C6.55422 2.99623 6.81384 2.81776 7.08357 2.65557C7.39482 2.46946 7.72113 2.3082 8.04375 2.14149C8.26177 2.02928 8.48251 1.9206 8.70614 1.81929C8.91038 1.72664 9.1159 1.63334 9.32832 1.56281C9.6378 1.45974 9.95146 1.36676 10.2678 1.28758C10.6419 1.1938 11.022 1.12455 11.3972 1.03527C12.3612 0.805556 13.34 0.861982 14.3176 0.869195C14.9475 0.873844 15.5522 1.03543 16.1654 1.13738C16.5319 1.19845 16.8853 1.34192 17.2423 1.45493C17.5278 1.54534 17.8137 1.63639 18.0926 1.74459C18.3262 1.83516 18.5519 1.94705 18.7774 2.05685C18.9599 2.14582 19.1404 2.23975 19.3158 2.34202C19.6476 2.53534 19.9821 2.7253 20.3021 2.93673C20.6582 3.17205 21.0083 3.41891 21.345 3.68116C21.6167 3.8904 21.8736 4.1182 22.1139 4.36292C22.5831 4.84686 23.059 5.32824 23.4845 5.84953C23.8689 6.32129 24.2117 6.83168 24.5348 7.34881C24.8464 7.84718 25.124 8.36847 25.3882 8.89393C25.5681 9.25156 25.7085 9.63003 25.8494 10.0059C26.0195 10.4622 26.1786 10.9228 26.3267 11.3875C26.4171 11.6629 26.4901 11.9436 26.5451 12.2282C26.6412 12.7451 26.7334 13.2642 26.794 13.7863C26.8787 14.5166 26.9329 15.2504 27 15.9824L26.9394 15.9864ZM11.6937 24.3407L11.7028 24.3897C12.0764 24.2993 12.4607 24.2391 12.8206 24.1105C13.1905 23.9786 13.5557 23.8106 13.8878 23.602C14.2159 23.396 14.502 23.1211 14.803 22.8736C15.3093 22.4557 15.7481 21.971 16.1574 21.4612C16.4755 21.0646 16.776 20.6527 17.0639 20.2333C17.1956 20.041 17.2838 19.8186 17.3777 19.6037C17.3955 19.5628 17.3617 19.4649 17.3245 19.4445C17.2874 19.4241 17.1964 19.448 17.1589 19.4836C16.8238 19.7992 16.5135 20.1439 16.1604 20.4372C15.5483 20.946 14.9318 21.4537 14.2183 21.8227C14.0715 21.8985 13.9299 21.983 13.7818 22.0572C13.5575 22.1694 13.3396 22.3006 13.1048 22.3831C12.7265 22.5174 12.3416 22.6321 11.9514 22.7265C11.2775 22.8868 10.6311 22.814 10.04 22.4251C9.91061 22.34 9.86207 22.1898 9.91189 22.0434C10.0298 21.6961 10.2385 21.4042 10.4886 21.1443C10.6816 20.9444 10.8825 20.7492 11.0999 20.577C11.3252 20.3969 11.5647 20.2353 11.8161 20.0939C12.0769 19.9496 12.3557 19.8355 12.6316 19.7199C12.8946 19.6096 13.1525 19.6088 13.4265 19.7289C13.6171 19.8124 13.8381 19.8324 14.0482 19.8629C14.1707 19.8808 14.2758 19.8308 14.3431 19.7096C14.4103 19.5885 14.4946 19.4785 14.5673 19.3611C14.7001 19.1468 14.6918 18.9222 14.6059 18.6951C14.4919 18.3933 14.3578 18.102 14.1414 17.8561C13.9634 17.6527 13.7589 17.501 13.4737 17.5602C13.1176 17.6339 12.7662 17.7301 12.4105 17.8103C12.349 17.8239 12.2553 17.8244 12.2167 17.7881C11.9764 17.5621 11.7212 17.3435 11.5215 17.0836C11.3515 16.8626 11.1952 16.6027 11.1313 16.3355C11.054 16.0131 11.058 15.6653 11.0672 15.3296C11.0803 14.8665 11.252 14.444 11.4571 14.0312C11.6818 13.5803 11.9716 13.1649 12.3173 12.7985C12.6313 12.4635 12.9696 12.1502 13.3105 11.8418C13.516 11.6557 13.7403 11.4892 13.9673 11.3289C14.2236 11.1474 14.4908 10.9794 14.7578 10.8129C14.9388 10.7007 15.1185 10.5764 15.3151 10.4992C15.6525 10.3636 15.9982 10.2496 16.3501 10.1577C16.5969 10.0951 16.8584 10.0882 17.1142 10.0636C17.2494 10.0508 17.3455 10.1278 17.3399 10.2582C17.3268 10.5615 17.3199 10.8703 17.2552 11.1646C17.1997 11.417 17.0895 11.6647 16.9644 11.8931C16.7616 12.2633 16.5579 12.6403 16.2974 12.9691C16.0033 13.3403 15.6626 13.6801 15.3103 13.9982C15.0718 14.2136 14.7884 14.3864 14.506 14.5432C14.3138 14.6503 14.0895 14.7008 13.8779 14.7705C13.764 14.808 13.7119 14.887 13.707 14.998C13.7017 15.1188 13.7835 15.1732 13.888 15.186C14.0099 15.2011 14.1343 15.2134 14.2564 15.2046C14.6409 15.1767 15.0271 15.1535 15.3861 14.9781C15.6206 14.8635 15.8827 14.8005 16.1069 14.6708C16.3735 14.5166 16.6195 14.3233 16.8632 14.1333C17.4339 13.6894 17.8698 13.1255 18.2435 12.5143C18.4906 12.1112 18.6695 11.67 18.7731 11.2087C18.8372 10.9222 18.8611 10.6354 18.7483 10.3527C18.5588 9.87769 18.1974 9.53433 17.8278 9.21116C17.5163 8.93865 17.1597 8.7176 16.8202 8.47796C16.5345 8.2763 16.2128 8.22372 15.8702 8.26027C15.3461 8.3126 14.8377 8.46935 14.3751 8.72129C13.9359 8.96174 13.4728 9.17013 13.0662 9.4569C12.6223 9.77061 12.2212 10.1483 11.8196 10.5176C11.3352 10.9628 10.9297 11.4805 10.582 12.0363C10.3133 12.4686 10.0915 12.9285 9.92038 13.408C9.73312 13.9262 9.5803 14.4462 9.53592 14.9968C9.49396 15.4723 9.61436 15.9479 9.87745 16.3461C10.075 16.6497 10.2885 16.9496 10.5366 17.2117C10.788 17.477 11.0925 17.6915 11.3696 17.933C11.4282 17.9842 11.5138 18.0648 11.505 18.1185C11.492 18.1974 11.4145 18.2745 11.3477 18.3331C11.2937 18.3804 11.2078 18.3896 11.1484 18.4325C10.8934 18.6172 10.6358 18.7996 10.3925 18.9992C10.1818 19.1722 9.97004 19.3507 9.79351 19.5567C9.54938 19.8396 9.32522 20.1391 9.12263 20.4531C8.88411 20.8264 8.726 21.2421 8.84791 21.6914C8.924 21.9721 9.05407 22.2411 9.18431 22.5032C9.41416 22.9703 9.72647 23.392 10.1062 23.7479C10.5555 24.169 11.0661 24.4048 11.6937 24.3407Z" fill="#333333"/>
</svg>
